<svg width="1355" height="238" viewBox="0 0 1355 238" fill="none" xmlns="http://www.w3.org/2000/svg">
<g clip-path="url(#clip0_3_122)">
<path d="M0 120.692L73.4423 163.828V87.5782V0L0 120.692Z" fill="url(#paint0_linear_3_122)"/>
<path d="M73 0V87.5782V163.828L146.442 120.692L73 0Z" fill="url(#paint1_linear_3_122)"/>
<path d="M0 134.635L73.4423 237.028V177.335L0 134.635Z" fill="url(#paint2_linear_3_122)"/>
<path d="M73.4417 177.335V237.028L146.884 134.635L73.4417 177.335Z" fill="url(#paint3_linear_3_122)"/>
<path d="M229.601 205.672C227.998 205.672 226.636 205.354 225.514 204.716C224.393 204.082 223.832 203.285 223.832 202.331C223.832 200.264 225.916 198.753 230.081 197.799C236.01 196.209 240.176 194.38 242.58 192.312C244.982 190.086 246.186 186.428 246.186 181.339V73.2717C246.186 68.023 245.064 64.2856 242.82 62.0593C240.737 59.6737 236.731 57.8447 230.803 56.5724C226.636 55.7772 224.552 54.1868 224.552 51.8011C224.552 50.688 225.033 49.8927 225.996 49.4157C227.116 48.7795 228.559 48.4614 230.322 48.4614C235.129 48.4614 241.698 48.6204 250.031 48.9385C258.364 49.2565 264.533 49.4157 268.538 49.4157C281.357 49.4157 296.58 49.2565 314.205 48.9385C319.173 48.7795 323.419 48.5409 326.945 48.2229C330.63 47.9047 332.793 47.7457 333.435 47.7457C336.799 47.7457 338.642 48.9385 338.963 51.3242L340.645 62.0593C342.088 70.3291 342.809 76.3728 342.809 80.1896C342.809 81.4617 342.487 82.4957 341.846 83.2912C341.206 84.0862 340.405 84.4835 339.443 84.4835C337.841 84.4835 336.56 83.3703 335.597 81.1442C334.316 77.8041 333.034 74.703 331.752 71.8404C330.63 68.8186 329.428 66.6715 328.147 65.3994C323.66 60.6278 317.971 58.2424 311.081 58.2424H288.728C285.684 58.2424 282.959 59.117 280.557 60.8665C278.313 62.6158 277.191 64.922 277.191 67.7847V114.542C277.191 118.2 279.034 120.029 282.719 120.029H304.592C308.597 120.029 311.482 118.995 313.245 116.928C315.168 114.86 316.93 111.441 318.532 106.67C319.494 103.489 321.015 101.899 323.099 101.899C323.9 101.899 324.621 102.375 325.262 103.33C325.903 104.125 326.224 105.238 326.224 106.67C325.583 113.031 325.262 119.154 325.262 125.039C325.262 133.15 325.503 139.591 325.984 144.362V145.555C325.984 148.418 325.182 149.849 323.579 149.849C322.459 149.849 321.337 149.292 320.215 148.179C319.253 146.906 318.532 145.237 318.052 143.169C316.771 138.557 315.247 135.217 313.485 133.15C311.722 130.923 309.318 129.81 306.273 129.81H283.921C281.517 129.81 279.754 130.287 278.632 131.241C277.672 132.036 277.191 133.468 277.191 135.535V180.862C277.191 185.951 278.233 189.529 280.315 191.597C282.559 193.664 286.083 194.697 290.891 194.697H310.6C319.253 194.697 325.743 193.107 330.069 189.927C334.396 186.587 338.963 180.384 343.769 171.319C344.891 169.251 346.334 168.218 348.095 168.218C349.698 168.377 350.501 169.729 350.501 172.274C350.501 177.363 348.015 187.303 343.048 202.093C342.088 204.32 340.485 205.432 338.242 205.432L309.4 204.956C288.888 204.639 272.785 204.478 261.087 204.478C258.043 204.478 252.996 204.639 245.944 204.956C240.656 205.432 235.209 205.672 229.601 205.672Z" fill="black"/>
<path d="M405.372 205.434C403.769 205.434 402.327 205.115 401.044 204.478C399.922 204.002 399.363 203.285 399.363 202.331C399.363 199.946 401.525 198.276 405.851 197.322C412.262 196.049 416.828 194.301 419.551 192.074C422.276 189.688 423.638 185.951 423.638 180.862V84.2454C423.638 75.0209 423.318 68.8981 422.677 65.8761C422.036 62.8547 420.914 61.1052 419.311 60.628C416.588 59.6739 412.262 59.1967 406.332 59.1967H398.882C394.234 59.1967 389.748 60.3101 385.421 62.5365C381.095 64.7631 377.729 67.6257 375.325 71.1248C373.884 73.5103 371.961 75.9756 369.558 78.52C367.314 80.9053 365.231 82.0985 363.309 82.0985C361.386 82.0985 360.424 80.8262 360.424 78.2817C360.424 76.6912 360.905 74.7824 361.865 72.5563C364.59 66.9893 366.593 62.2185 367.875 58.2424C369.158 54.1075 370.119 49.3363 370.759 43.929C371.4 40.1121 373.163 38.2035 376.048 38.2035C376.849 38.2035 378.05 39.3168 379.654 41.5434C381.255 43.6109 382.457 45.1219 383.257 46.076C384.539 47.3483 386.943 48.3821 390.469 49.1773C393.994 49.9724 397.278 50.3701 400.323 50.3701L489.016 50.1316C496.546 50.1316 502.715 49.0181 507.523 46.7917C508.645 46.1555 510.166 45.0422 512.089 43.4519C513.371 42.3386 514.413 41.5434 515.213 41.0663C516.176 40.4301 517.216 40.1121 518.338 40.1121C519.941 40.1121 520.742 41.6229 520.742 44.6447C520.742 45.4398 520.502 47.2688 520.021 50.1316C520.021 50.1316 519.46 52.358 518.338 56.8111C516.737 62.6955 515.934 67.5466 515.934 71.3632V75.4189C515.934 77.8044 515.535 79.7922 514.732 81.3826C514.093 82.8141 513.131 83.5298 511.849 83.5298C510.567 83.5298 509.446 82.8141 508.483 81.3826C507.523 79.9513 506.641 77.5661 505.84 74.226C504.398 68.9779 501.915 65.1605 498.389 62.775C495.023 60.3896 489.816 59.1967 482.765 59.1967H466.422C463.056 59.1967 460.572 59.8329 458.971 61.1052C457.528 62.2185 456.487 64.604 455.846 68.2622C455.206 71.7607 454.884 77.4861 454.884 85.4384V180.624C454.884 185.552 456.246 189.212 458.971 191.597C461.694 193.982 466.26 195.891 472.671 197.322C474.913 197.8 476.516 198.436 477.478 199.231C478.6 199.867 479.161 200.821 479.161 202.093C479.161 203.047 478.6 203.842 477.478 204.478C476.356 204.956 474.995 205.194 473.392 205.194C469.546 205.194 463.617 205.035 455.605 204.718C448.234 204.399 442.867 204.24 439.502 204.24C436.297 204.24 430.849 204.399 423.157 204.718C417.389 205.194 411.459 205.434 405.372 205.434Z" fill="black"/>
<path d="M531.683 205.434C530.241 205.434 528.959 205.115 527.837 204.478C526.715 203.842 526.154 203.047 526.154 202.094C526.154 200.821 526.635 199.867 527.598 199.231C528.558 198.436 530.081 197.8 532.164 197.322C537.772 196.049 541.539 194.38 543.46 192.312C545.544 190.086 546.586 186.349 546.586 181.1V73.033C546.586 67.6258 545.704 63.8885 543.941 61.8209C542.339 59.5945 538.654 57.845 532.886 56.5727C528.879 55.9365 526.875 54.3461 526.875 51.8014C526.875 50.6883 527.356 49.893 528.318 49.416C529.44 48.7797 530.802 48.4617 532.405 48.4617C536.731 48.4617 542.26 48.6207 548.99 48.9388C555.398 49.2568 559.966 49.416 562.689 49.416C565.574 49.416 570.382 49.2568 577.11 48.9388C584.481 48.6207 590.33 48.4617 594.657 48.4617C598.021 48.4617 599.704 49.6545 599.704 52.0401C599.704 53.3124 599.224 54.2666 598.262 54.9027C597.462 55.5389 595.938 56.0955 593.695 56.5727C587.446 58.1631 583.199 60.1511 580.957 62.5366C578.873 64.7632 577.832 68.3414 577.832 73.272V117.644C577.832 119.552 579.034 120.507 581.436 120.507H653.301C655.066 120.507 655.948 119.393 655.948 117.167V73.033C655.948 68.4208 654.828 64.9222 652.58 62.5366C650.501 59.9919 646.413 58.004 640.324 56.5727C638.082 56.0955 636.479 55.5389 635.518 54.9027C634.556 54.2666 634.075 53.3124 634.075 52.0401C634.075 49.6545 635.838 48.4617 639.363 48.4617C643.528 48.4617 649.458 48.6207 657.152 48.9388C664.201 49.2568 669.327 49.416 672.533 49.416C675.094 49.416 679.261 49.2568 685.029 48.9388C691.441 48.6207 696.888 48.4617 701.375 48.4617C702.978 48.4617 704.26 48.7797 705.219 49.416C706.339 49.893 706.905 50.6883 706.905 51.8014C706.905 54.1871 704.898 55.7775 700.893 56.5727C695.285 57.845 691.602 59.6739 689.838 62.0596C688.075 64.2859 687.193 67.9441 687.193 73.033V181.1C687.193 186.349 688.075 190.086 689.838 192.312C691.764 194.539 695.523 196.21 701.137 197.322C703.217 197.8 704.743 198.436 705.702 199.231C706.661 199.867 707.143 200.821 707.143 202.094C707.143 203.047 706.584 203.842 705.464 204.478C704.337 205.115 703.055 205.434 701.614 205.434C696.167 205.434 690.798 205.194 685.512 204.718C679.1 204.399 674.374 204.24 671.329 204.24C668.444 204.24 663.48 204.399 656.431 204.718C649.06 205.035 643.289 205.194 639.122 205.194C635.758 205.194 634.075 204.082 634.075 201.856C634.075 200.583 634.476 199.629 635.277 198.991C636.239 198.357 637.76 197.8 639.844 197.322C645.769 196.049 649.942 194.221 652.342 191.835C654.744 189.45 655.948 185.871 655.948 181.1V135.774C655.948 133.23 655.144 131.957 653.546 131.957H580.476C579.514 131.957 578.793 132.275 578.314 132.912C577.992 133.389 577.832 134.263 577.832 135.536V180.146C577.832 184.918 579.194 188.655 581.917 191.359C584.642 194.063 588.969 196.049 594.896 197.322C597.14 197.8 598.663 198.357 599.464 198.991C600.425 199.629 600.906 200.583 600.906 201.856C600.906 204.082 599.143 205.194 595.619 205.194C591.452 205.194 585.684 205.035 578.314 204.718C570.941 204.399 565.734 204.24 562.689 204.24C559.485 204.24 554.518 204.399 547.788 204.718C542.499 205.194 537.131 205.434 531.683 205.434Z" fill="black"/>
<path d="M803.935 207.819C789.835 207.819 776.618 204.558 764.277 198.037C752.102 191.359 742.329 182.055 734.958 170.127C727.747 158.198 724.141 144.601 724.141 129.333C724.141 114.701 727.347 101.024 733.754 88.3011C740.166 75.5774 749.54 65.3996 761.875 57.7654C774.218 49.9725 788.955 46.0759 806.099 46.0759C820.205 46.0759 833.345 49.4159 845.518 56.0954C857.862 62.6159 867.635 71.8406 874.844 83.768C882.217 95.6961 885.899 109.294 885.899 124.562C885.899 139.193 882.693 152.87 876.287 165.593C869.875 178.317 860.5 188.575 848.165 196.368C835.824 204.002 821.087 207.819 803.935 207.819ZM807.54 198.275C825.49 198.275 839.191 192.79 848.641 181.815C858.1 170.682 862.825 155.495 862.825 136.251C862.825 121.142 860.5 107.544 855.852 95.4578C851.21 83.3705 844.315 73.8286 835.186 66.8309C826.211 59.6738 815.234 56.0954 802.255 56.0954C784.467 56.0954 770.85 61.5823 761.392 72.5562C751.942 83.3705 747.216 98.3206 747.216 117.405C747.216 132.514 749.457 146.191 753.943 158.437C758.592 170.682 765.404 180.384 774.371 187.541C783.508 194.697 794.561 198.275 807.54 198.275Z" fill="black"/>
<path d="M907.217 205.194C904.017 205.194 902.414 204.32 902.414 202.569C902.414 201.457 902.814 200.741 903.611 200.422C904.417 199.946 905.858 199.389 907.937 198.753C911.305 197.958 913.867 197.003 915.631 195.89C917.396 194.618 918.278 192.55 918.278 189.688V138.398C918.278 133.308 917.717 129.412 916.59 126.708C915.47 124.004 913.069 122.176 909.379 121.222C907.782 120.744 906.978 119.71 906.978 118.12C906.978 116.371 907.699 115.416 909.141 115.257C914.111 113.985 918.278 112.394 921.637 110.486C925.166 108.578 929.01 106.113 933.175 103.091C934.302 102.296 935.184 101.898 935.821 101.898C936.625 101.898 937.025 102.455 937.025 103.568L936.542 108.578C936.381 109.85 936.221 111.44 936.059 113.349C935.904 115.098 935.821 116.928 935.821 118.836C935.821 120.426 935.983 121.381 936.304 121.698C942.072 116.291 948.08 112.315 954.33 109.771C960.576 107.067 967.471 105.715 974.996 105.715C982.69 105.715 989.102 108.896 994.228 115.257C999.513 121.619 1002.16 129.491 1002.16 138.875V189.688C1002.16 192.55 1002.96 194.538 1004.56 195.652C1006.32 196.606 1008.97 197.639 1012.49 198.753C1014.42 199.389 1015.78 200.026 1016.58 200.662C1017.54 201.138 1018.02 201.933 1018.02 203.047C1018.02 204.478 1016.42 205.194 1013.21 205.194C1008.89 205.194 1005.44 204.956 1002.88 204.478C999.674 204.159 996.713 204.001 993.99 204.001C991.428 204.001 988.382 204.159 984.854 204.478C982.291 204.956 978.763 205.194 974.276 205.194C971.076 205.194 969.473 204.478 969.473 203.047C969.473 201.933 969.873 201.138 970.67 200.662C971.636 200.026 973.079 199.389 974.996 198.753C978.525 197.639 981.087 196.606 982.69 195.652C984.455 194.538 985.337 192.55 985.337 189.688V139.59C985.337 132.752 983.334 127.344 979.323 123.369C975.479 119.392 970.272 117.325 963.705 117.166C953.771 117.166 944.873 120.347 937.025 126.708C935.743 127.98 935.1 129.81 935.1 132.195V189.688C935.1 192.55 935.983 194.618 937.746 195.89C939.51 197.003 942.072 197.958 945.433 198.753C947.359 199.231 948.724 199.786 949.521 200.422C950.48 200.9 950.963 201.616 950.963 202.569C950.963 204.32 949.36 205.194 946.154 205.194C941.989 205.194 938.545 204.956 935.821 204.478C932.299 204.159 929.254 204.001 926.686 204.001C924.122 204.001 921.078 204.159 917.555 204.478C914.994 204.956 911.543 205.194 907.217 205.194Z" fill="black"/>
<path d="M1033 205.194C1029.8 205.194 1028.2 204.478 1028.2 203.047C1028.2 201.935 1028.59 201.138 1029.4 200.662C1030.36 200.026 1031.8 199.389 1033.73 198.753C1037.25 197.641 1039.82 196.606 1041.41 195.652C1043.18 194.538 1044.06 192.55 1044.06 189.688V69.4543C1044.06 59.4351 1040.38 53.6301 1033 52.0398C1032.36 51.8806 1031.88 51.5626 1031.56 51.0855C1031.24 50.4493 1031.08 49.7337 1031.08 48.9385C1031.08 47.348 1031.64 46.3939 1032.76 46.0757C1039.01 44.6444 1046.14 42.2588 1054.15 38.919L1059.92 36.7721C1060.57 36.4539 1061.04 36.2949 1061.36 36.2949C1061.69 36.2949 1061.92 36.5334 1062.09 37.0106C1062.41 37.3286 1062.57 37.6467 1062.57 37.9649C1062.57 38.919 1062.25 41.9408 1061.6 47.03C1061.13 52.1193 1060.88 59.9121 1060.88 70.4091V189.688C1060.88 192.55 1061.69 194.538 1063.29 195.652C1065.05 196.606 1067.69 197.641 1071.22 198.753C1073.14 199.389 1074.5 200.026 1075.3 200.662C1076.27 201.138 1076.74 201.935 1076.74 203.047C1076.74 204.478 1075.15 205.194 1071.94 205.194C1067.78 205.194 1064.33 204.956 1061.6 204.478C1058.08 204.161 1055.04 204.001 1052.47 204.001C1049.91 204.001 1046.87 204.161 1043.34 204.478C1040.77 204.956 1037.33 205.194 1033 205.194Z" fill="black"/>
<path d="M1091.94 205.194C1088.74 205.194 1087.13 204.32 1087.13 202.569C1087.13 201.457 1087.54 200.662 1088.34 200.184C1089.3 199.707 1090.74 199.231 1092.67 198.753C1096.35 197.799 1098.99 196.765 1100.6 195.652C1102.2 194.38 1103 192.392 1103 189.688V137.921C1103 127.424 1099.39 121.619 1092.18 120.506C1090.59 120.347 1089.78 119.313 1089.78 117.405C1089.78 115.656 1090.5 114.701 1091.94 114.542C1101.72 112.315 1110.13 108.34 1117.18 102.614C1118.62 101.5 1119.74 100.944 1120.55 100.944C1121.51 100.944 1121.99 101.341 1121.99 102.137C1121.99 103.886 1121.75 106.908 1121.27 111.202C1121.11 113.11 1120.79 116.689 1120.3 121.938C1119.99 127.026 1119.83 131.161 1119.83 134.342V189.688C1119.83 192.233 1120.63 194.14 1122.23 195.413C1123.99 196.685 1126.64 197.799 1130.16 198.753C1132.09 199.231 1133.44 199.707 1134.25 200.184C1135.21 200.662 1135.69 201.457 1135.69 202.569C1135.69 204.32 1134.09 205.194 1130.88 205.194C1126.88 205.194 1123.51 204.956 1120.79 204.478C1117.27 204.161 1114.14 204.001 1111.41 204.001C1108.85 204.001 1105.8 204.161 1102.28 204.478C1099.72 204.956 1096.27 205.194 1091.94 205.194ZM1111.17 81.3824C1107.81 81.3824 1104.92 80.2692 1102.52 78.0423C1100.27 75.657 1099.15 72.7942 1099.15 69.4541C1099.15 65.9557 1100.27 63.0927 1102.52 60.8663C1104.92 58.4807 1107.81 57.2878 1111.17 57.2878C1114.7 57.2878 1117.58 58.4807 1119.83 60.8663C1122.23 63.0927 1123.43 65.9557 1123.43 69.4541C1123.43 72.7942 1122.23 75.657 1119.83 78.0423C1117.58 80.2692 1114.7 81.3824 1111.17 81.3824Z" fill="black"/>
<path d="M1150.86 205.194C1147.65 205.194 1146.06 204.32 1146.06 202.569C1146.06 201.457 1146.46 200.741 1147.25 200.422C1148.06 199.946 1149.5 199.389 1151.58 198.753C1154.95 197.958 1157.51 197.003 1159.27 195.89C1161.04 194.618 1161.92 192.55 1161.92 189.688V138.398C1161.92 133.308 1161.35 129.412 1160.23 126.708C1159.11 124.004 1156.71 122.176 1153.02 121.222C1151.42 120.744 1150.62 119.71 1150.62 118.12C1150.62 116.371 1151.34 115.416 1152.79 115.257C1157.75 113.985 1161.92 112.394 1165.28 110.486C1168.81 108.578 1172.65 106.113 1176.82 103.091C1177.94 102.296 1178.82 101.898 1179.46 101.898C1180.26 101.898 1180.67 102.455 1180.67 103.568L1180.19 108.578C1180.03 109.85 1179.86 111.44 1179.7 113.349C1179.54 115.098 1179.46 116.928 1179.46 118.836C1179.46 120.426 1179.63 121.381 1179.95 121.698C1185.72 116.291 1191.72 112.315 1197.97 109.771C1204.22 107.067 1211.11 105.715 1218.64 105.715C1226.33 105.715 1232.74 108.896 1237.87 115.257C1243.16 121.619 1245.8 129.491 1245.8 138.875V189.688C1245.8 192.55 1246.6 194.538 1248.2 195.652C1249.97 196.606 1252.61 197.639 1256.14 198.753C1258.06 199.389 1259.42 200.026 1260.23 200.662C1261.18 201.138 1261.67 201.933 1261.67 203.047C1261.67 204.478 1260.06 205.194 1256.86 205.194C1252.53 205.194 1249.09 204.956 1246.52 204.478C1243.32 204.159 1240.36 204.001 1237.63 204.001C1235.06 204.001 1232.02 204.159 1228.5 204.478C1225.94 204.956 1222.41 205.194 1217.92 205.194C1214.71 205.194 1213.12 204.478 1213.12 203.047C1213.12 201.933 1213.52 201.138 1214.31 200.662C1215.28 200.026 1216.72 199.389 1218.64 198.753C1222.17 197.639 1224.73 196.606 1226.33 195.652C1228.1 194.538 1228.98 192.55 1228.98 189.688V139.59C1228.98 132.752 1226.97 127.344 1222.97 123.369C1219.12 119.392 1213.92 117.325 1207.35 117.166C1197.41 117.166 1188.52 120.347 1180.67 126.708C1179.38 127.98 1178.74 129.81 1178.74 132.195V189.688C1178.74 192.55 1179.63 194.618 1181.39 195.89C1183.15 197.003 1185.72 197.958 1189.08 198.753C1191 199.231 1192.36 199.786 1193.16 200.422C1194.12 200.9 1194.61 201.616 1194.61 202.569C1194.61 204.32 1193 205.194 1189.8 205.194C1185.63 205.194 1182.19 204.956 1179.46 204.478C1175.94 204.159 1172.89 204.001 1170.33 204.001C1167.77 204.001 1164.72 204.159 1161.2 204.478C1158.63 204.956 1155.19 205.194 1150.86 205.194Z" fill="black"/>
<path d="M1318.46 208.057C1309.81 208.057 1302.12 205.91 1295.39 201.616C1288.82 197.322 1283.7 191.279 1280.01 183.486C1276.33 175.533 1274.48 166.389 1274.48 156.051C1274.48 147.146 1276.56 138.796 1280.73 131.003C1285.06 123.21 1290.75 117.087 1297.8 112.634C1304.85 108.022 1312.54 105.716 1320.87 105.716C1330.48 105.716 1338.34 108.578 1344.42 114.304C1350.67 119.87 1353.8 127.027 1353.8 135.774C1353.8 140.705 1351.39 143.169 1346.59 143.169H1295.87C1293.63 143.169 1292.03 143.806 1291.06 145.078C1290.26 146.191 1289.87 148.497 1289.87 151.996C1289.87 159.471 1291.47 166.389 1294.67 172.75C1298.04 179.112 1302.52 184.202 1308.13 188.018C1313.9 191.676 1320.15 193.506 1326.88 193.506C1336.34 193.506 1344.18 189.927 1350.44 182.771C1351.39 181.498 1352.28 180.862 1353.08 180.862C1354.36 180.862 1355 181.657 1355 183.247C1355 186.268 1353.56 189.608 1350.67 193.266C1347.15 197.879 1342.5 201.536 1336.74 204.24C1330.97 206.786 1324.88 208.057 1318.46 208.057ZM1318.23 135.774C1325.76 135.774 1331.69 135.377 1336.01 134.581C1337.3 134.422 1337.93 132.673 1337.93 129.333C1337.93 124.721 1335.85 120.824 1331.69 117.644C1327.68 114.304 1322.87 112.634 1317.27 112.634C1313.74 112.634 1310.06 113.747 1306.21 115.973C1302.52 118.041 1299.48 120.665 1297.08 123.846C1294.67 127.027 1293.47 130.208 1293.47 133.389C1293.47 134.979 1294.43 135.774 1296.36 135.774H1318.23Z" fill="black"/>
</g>
<defs>
<linearGradient id="paint0_linear_3_122" x1="17.098" y1="137.615" x2="113.906" y2="39.9044" gradientUnits="userSpaceOnUse">
<stop stop-color="#F02F9F"/>
<stop offset="1" stop-color="#FFAD00"/>
</linearGradient>
<linearGradient id="paint1_linear_3_122" x1="109.771" y1="163.692" x2="109.771" y2="-17.7021" gradientUnits="userSpaceOnUse">
<stop stop-color="#06FFFF"/>
<stop offset="0.0225704" stop-color="#07F6FD"/>
<stop offset="0.1481" stop-color="#0AC7F2"/>
<stop offset="0.278" stop-color="#0D9FE9"/>
<stop offset="0.4102" stop-color="#0F7EE2"/>
<stop offset="0.5457" stop-color="#1164DC"/>
<stop offset="0.6857" stop-color="#1252D8"/>
<stop offset="0.8331" stop-color="#1347D6"/>
<stop offset="1" stop-color="#1344D5"/>
</linearGradient>
<linearGradient id="paint2_linear_3_122" x1="-0.0439774" y1="185.762" x2="73.4461" y2="185.762" gradientUnits="userSpaceOnUse">
<stop stop-color="#06FFFF"/>
<stop offset="0.1076" stop-color="#07F5FD"/>
<stop offset="0.2899" stop-color="#09DAF7"/>
<stop offset="0.5246" stop-color="#0CAFED"/>
<stop offset="0.7995" stop-color="#1074E0"/>
<stop offset="1" stop-color="#1344D5"/>
</linearGradient>
<linearGradient id="paint3_linear_3_122" x1="73.4455" y1="185.762" x2="146.979" y2="185.762" gradientUnits="userSpaceOnUse">
<stop stop-color="#F02F9F"/>
<stop offset="1" stop-color="#FFAD00"/>
</linearGradient>
<clipPath id="clip0_3_122">
<rect width="1355" height="238" fill="white"/>
</clipPath>
</defs>
</svg>
