<svg width="502" height="127" viewBox="0 0 502 127" fill="none" xmlns="http://www.w3.org/2000/svg">
<path d="M0 1.25031H342L331.5 27L358 59.5L350 110.25H0V1.25031Z" fill="black"/>
<path d="M35.36 34.1223C35.1467 34.7623 34.6347 35.125 33.824 35.2103C33.056 35.2956 32.2453 35.317 31.392 35.2743C31.136 35.2743 30.88 35.2743 30.624 35.2743C30.368 35.2743 30.112 35.2743 29.856 35.2743C29.6853 35.4023 29.728 35.7223 29.984 36.2343C30.0693 36.405 30.1333 36.597 30.176 36.8103C30.2613 36.981 30.304 37.1516 30.304 37.3223C30.1333 37.493 30.0053 37.7063 29.92 37.9623C29.8347 38.1756 29.7493 38.453 29.664 38.7943C29.6213 39.861 29.6 40.9276 29.6 41.9943C29.6 43.0183 29.5787 44.085 29.536 45.1943C29.4933 49.2903 29.4507 53.429 29.408 57.6103C29.408 61.7916 29.408 65.9516 29.408 70.0903C30.3893 70.133 31.456 70.3676 32.608 70.7943C33.76 71.221 34.592 71.8823 35.104 72.7783C34.0373 73.4183 32.8 73.7596 31.392 73.8023C30.0267 73.845 28.5973 73.8236 27.104 73.7383C26.208 73.6956 25.312 73.6743 24.416 73.6743C23.5627 73.6316 22.7307 73.6743 21.92 73.8023C21.664 73.845 21.472 73.9516 21.344 74.1223C21.216 74.2503 21.088 74.3996 20.96 74.5703C20.832 74.8263 20.6613 75.0396 20.448 75.2103C20.2347 75.4236 19.8933 75.4663 19.424 75.3383C18.9973 74.741 18.8267 74.1436 18.912 73.5463C19.04 72.949 19.2747 72.3943 19.616 71.8823C20 71.3276 20.3413 70.8796 20.64 70.5383C20.8533 70.5383 21.0667 70.5383 21.28 70.5383C21.536 70.5383 21.792 70.5383 22.048 70.5383C22.56 70.5383 23.072 70.5383 23.584 70.5383C24.096 70.5383 24.544 70.453 24.928 70.2823C24.8853 66.4423 24.864 62.3676 24.864 58.0583C24.864 53.7063 24.8213 49.4183 24.736 45.1943C24.6933 41.8663 24.5653 38.6663 24.352 35.5943C24.0533 35.509 23.7333 35.4663 23.392 35.4663C23.0507 35.4236 22.688 35.4023 22.304 35.4023C21.7067 35.4023 21.1307 35.381 20.576 35.3383C20.0213 35.2956 19.5307 35.1036 19.104 34.7623C19.0187 34.421 19.0187 34.165 19.104 33.9943C19.232 33.8236 19.36 33.653 19.488 33.4823C19.616 33.3543 19.7227 33.2263 19.808 33.0983C19.8933 32.9276 19.936 32.7356 19.936 32.5223C21.2587 32.5223 22.6667 32.4583 24.16 32.3303C25.696 32.2023 27.1893 32.1383 28.64 32.1383C30.0907 32.1383 31.4133 32.2663 32.608 32.5223C33.8027 32.7783 34.72 33.3116 35.36 34.1223ZM69.7105 48.0103C70.2652 49.2903 70.1798 50.2716 69.4545 50.9543C68.7718 51.637 67.9612 51.9783 67.0225 51.9783C66.2118 51.9783 65.4865 51.6796 64.8465 51.0823C64.2065 50.485 64.0358 49.525 64.3345 48.2023C63.5238 48.3303 62.8198 48.5863 62.2225 48.9703C61.6678 49.3543 61.1772 49.8236 60.7505 50.3783C60.1958 51.061 59.7052 51.8076 59.2785 52.6183C58.8518 53.429 58.3398 54.1543 57.7425 54.7943C57.5292 56.373 57.4012 57.8236 57.3585 59.1463C57.3585 60.4263 57.3798 61.685 57.4225 62.9223C57.4225 63.861 57.4225 64.821 57.4225 65.8023C57.4225 66.7836 57.3798 67.829 57.2945 68.9383C57.3798 69.4503 57.6572 69.8556 58.1265 70.1543C58.6385 70.4103 59.1718 70.645 59.7265 70.8583C60.3665 71.029 60.9425 71.221 61.4545 71.4343C62.0092 71.6476 62.3078 71.9676 62.3505 72.3943C62.4358 73.0343 62.2225 73.461 61.7105 73.6743C61.1985 73.845 60.6012 73.9303 59.9185 73.9303C59.2785 73.9303 58.6385 73.8876 57.9985 73.8023C57.3585 73.717 56.8678 73.6743 56.5265 73.6743C55.8012 73.6316 55.0972 73.6743 54.4145 73.8023C53.7318 73.9303 53.0705 74.0796 52.4305 74.2503C51.9612 74.3783 51.5132 74.485 51.0865 74.5703C50.7025 74.6556 50.3185 74.6983 49.9345 74.6983C49.4225 74.357 49.1878 73.9943 49.2305 73.6103C49.2732 73.1836 49.3798 72.757 49.5505 72.3303C49.6358 72.0316 49.6998 71.8183 49.7425 71.6903C50.4678 71.477 51.1078 71.2423 51.6625 70.9863C52.2172 70.6876 52.6865 70.2823 53.0705 69.7703C53.0705 68.4903 53.0705 67.2956 53.0705 66.1863C53.0705 65.0343 53.0918 63.925 53.1345 62.8583C53.1345 60.2983 53.1132 57.845 53.0705 55.4983C53.0705 53.1516 52.8998 50.5703 52.5585 47.7543C52.3025 47.7543 52.0678 47.7756 51.8545 47.8183C51.6838 47.861 51.5132 47.9036 51.3425 47.9463C50.9585 47.989 50.5958 48.0316 50.2545 48.0743C49.9558 48.0743 49.5932 47.9676 49.1665 47.7543C48.8252 47.4556 48.6758 47.1783 48.7185 46.9223C48.7612 46.6663 48.8465 46.389 48.9745 46.0903C49.0598 45.877 49.1238 45.7063 49.1665 45.5783C49.5078 45.493 49.8492 45.429 50.1905 45.3863C50.5318 45.301 50.8518 45.237 51.1505 45.1943C51.3212 45.1516 51.5558 45.0876 51.8545 45.0023C52.7932 44.789 53.6892 44.6183 54.5425 44.4903C55.3958 44.3623 56.3132 44.4476 57.2945 44.7463C57.2945 44.789 57.2945 44.853 57.2945 44.9383C57.3372 45.0236 57.3585 45.109 57.3585 45.1943C57.3585 45.5356 57.3372 45.8556 57.2945 46.1543C57.2945 46.453 57.2732 46.7303 57.2305 46.9863C57.1878 47.4983 57.1665 47.9676 57.1665 48.3943C57.1665 48.821 57.2732 49.2263 57.4865 49.6103C58.0838 49.3116 58.7452 48.8423 59.4705 48.2023C60.1958 47.5623 61.0278 46.965 61.9665 46.4103C62.6492 46.0263 63.3745 45.749 64.1425 45.5783C64.9532 45.365 65.8065 45.365 66.7025 45.5783C67.4278 45.749 67.9612 46.0903 68.3025 46.6023C68.6438 47.0716 69.1132 47.541 69.7105 48.0103ZM101.711 48.0103C102.265 49.2903 102.18 50.2716 101.455 50.9543C100.772 51.637 99.9612 51.9783 99.0225 51.9783C98.2118 51.9783 97.4865 51.6796 96.8465 51.0823C96.2065 50.485 96.0358 49.525 96.3345 48.2023C95.5238 48.3303 94.8198 48.5863 94.2225 48.9703C93.6678 49.3543 93.1772 49.8236 92.7505 50.3783C92.1958 51.061 91.7052 51.8076 91.2785 52.6183C90.8518 53.429 90.3398 54.1543 89.7425 54.7943C89.5292 56.373 89.4012 57.8236 89.3585 59.1463C89.3585 60.4263 89.3798 61.685 89.4225 62.9223C89.4225 63.861 89.4225 64.821 89.4225 65.8023C89.4225 66.7836 89.3798 67.829 89.2945 68.9383C89.3798 69.4503 89.6572 69.8556 90.1265 70.1543C90.6385 70.4103 91.1718 70.645 91.7265 70.8583C92.3665 71.029 92.9425 71.221 93.4545 71.4343C94.0092 71.6476 94.3078 71.9676 94.3505 72.3943C94.4358 73.0343 94.2225 73.461 93.7105 73.6743C93.1985 73.845 92.6012 73.9303 91.9185 73.9303C91.2785 73.9303 90.6385 73.8876 89.9985 73.8023C89.3585 73.717 88.8678 73.6743 88.5265 73.6743C87.8012 73.6316 87.0972 73.6743 86.4145 73.8023C85.7318 73.9303 85.0705 74.0796 84.4305 74.2503C83.9612 74.3783 83.5132 74.485 83.0865 74.5703C82.7025 74.6556 82.3185 74.6983 81.9345 74.6983C81.4225 74.357 81.1878 73.9943 81.2305 73.6103C81.2732 73.1836 81.3798 72.757 81.5505 72.3303C81.6358 72.0316 81.6998 71.8183 81.7425 71.6903C82.4678 71.477 83.1078 71.2423 83.6625 70.9863C84.2172 70.6876 84.6865 70.2823 85.0705 69.7703C85.0705 68.4903 85.0705 67.2956 85.0705 66.1863C85.0705 65.0343 85.0918 63.925 85.1345 62.8583C85.1345 60.2983 85.1132 57.845 85.0705 55.4983C85.0705 53.1516 84.8998 50.5703 84.5585 47.7543C84.3025 47.7543 84.0678 47.7756 83.8545 47.8183C83.6838 47.861 83.5132 47.9036 83.3425 47.9463C82.9585 47.989 82.5958 48.0316 82.2545 48.0743C81.9558 48.0743 81.5932 47.9676 81.1665 47.7543C80.8252 47.4556 80.6758 47.1783 80.7185 46.9223C80.7612 46.6663 80.8465 46.389 80.9745 46.0903C81.0598 45.877 81.1238 45.7063 81.1665 45.5783C81.5078 45.493 81.8492 45.429 82.1905 45.3863C82.5318 45.301 82.8518 45.237 83.1505 45.1943C83.3212 45.1516 83.5558 45.0876 83.8545 45.0023C84.7932 44.789 85.6892 44.6183 86.5425 44.4903C87.3958 44.3623 88.3132 44.4476 89.2945 44.7463C89.2945 44.789 89.2945 44.853 89.2945 44.9383C89.3372 45.0236 89.3585 45.109 89.3585 45.1943C89.3585 45.5356 89.3372 45.8556 89.2945 46.1543C89.2945 46.453 89.2732 46.7303 89.2305 46.9863C89.1878 47.4983 89.1665 47.9676 89.1665 48.3943C89.1665 48.821 89.2732 49.2263 89.4865 49.6103C90.0838 49.3116 90.7452 48.8423 91.4705 48.2023C92.1958 47.5623 93.0278 46.965 93.9665 46.4103C94.6492 46.0263 95.3745 45.749 96.1425 45.5783C96.9532 45.365 97.8065 45.365 98.7025 45.5783C99.4278 45.749 99.9612 46.0903 100.303 46.6023C100.644 47.0716 101.113 47.541 101.711 48.0103ZM142.159 72.9703C141.945 73.6103 141.519 74.037 140.879 74.2503C140.281 74.4636 139.599 74.5916 138.831 74.6343C138.447 74.6343 138.041 74.613 137.615 74.5703C137.188 74.5703 136.783 74.5703 136.399 74.5703C136.057 74.5276 135.716 74.5063 135.375 74.5063C135.076 74.5063 134.799 74.5063 134.543 74.5063C133.903 74.2076 133.54 73.7596 133.455 73.1623C133.412 72.5223 133.433 71.8396 133.519 71.1143C133.519 70.8156 133.519 70.517 133.519 70.2183C133.561 69.9196 133.583 69.621 133.583 69.3223C133.071 69.5783 132.58 69.8983 132.111 70.2823C131.684 70.6236 131.236 70.9863 130.767 71.3703C129.828 72.1383 128.804 72.8636 127.695 73.5463C126.628 74.229 125.263 74.549 123.599 74.5063C122.703 74.4636 121.977 74.2716 121.423 73.9303C120.868 73.5463 120.121 73.3116 119.183 73.2263C117.945 71.733 117.135 69.9623 116.751 67.9143C116.367 65.8663 116.153 63.6903 116.111 61.3863C116.111 60.4903 116.111 59.573 116.111 58.6343C116.153 57.653 116.196 56.693 116.239 55.7543C116.281 54.4316 116.303 53.1303 116.303 51.8503C116.345 50.5703 116.324 49.3116 116.239 48.0743C116.068 48.0743 115.876 48.0956 115.663 48.1383C115.449 48.1383 115.236 48.1596 115.023 48.2023C114.553 48.2876 114.084 48.3303 113.615 48.3303C113.188 48.3303 112.847 48.1596 112.591 47.8183C112.633 47.093 112.868 46.517 113.295 46.0903C113.764 45.6636 114.34 45.365 115.023 45.1943C115.364 45.109 115.705 45.045 116.047 45.0023C116.431 44.9596 116.793 44.9383 117.135 44.9383C117.519 44.9383 117.903 44.9596 118.287 45.0023C118.671 45.045 119.033 45.109 119.375 45.1943C120.441 45.4503 121.188 45.8343 121.615 46.3463C120.932 48.6503 120.505 51.253 120.335 54.1543C120.207 57.0556 120.164 60.085 120.207 63.2423C120.249 64.309 120.335 65.397 120.463 66.5063C120.591 67.573 120.825 68.533 121.167 69.3863C121.551 70.197 122.041 70.7303 122.639 70.9863C123.62 71.3703 124.644 71.477 125.711 71.3063C126.777 71.1356 127.78 70.7943 128.719 70.2823C129.657 69.7703 130.404 69.1943 130.959 68.5543C131.769 67.6583 132.367 66.5703 132.751 65.2903C133.177 64.0103 133.455 62.6236 133.583 61.1303C133.711 59.637 133.753 58.0796 133.711 56.4583C133.668 54.837 133.604 53.2583 133.519 51.7223C133.519 51.2103 133.497 50.7196 133.455 50.2503C133.412 49.7383 133.391 49.2476 133.391 48.7783C133.22 48.7783 132.964 48.7996 132.623 48.8423C132.111 48.885 131.577 48.885 131.023 48.8423C130.468 48.757 130.041 48.4156 129.743 47.8183C129.828 47.5196 129.913 47.2636 129.999 47.0503C130.127 46.7943 130.191 46.4743 130.191 46.0903C130.916 46.005 131.62 45.877 132.303 45.7063C132.985 45.493 133.625 45.3223 134.223 45.1943C134.863 45.0663 135.46 45.0023 136.015 45.0023C136.271 45.0023 136.505 45.0236 136.719 45.0663C136.975 45.109 137.209 45.173 137.423 45.2583C138.062 45.4716 138.639 45.8343 139.151 46.3463C138.596 46.517 138.297 46.9223 138.255 47.5623C138.255 48.2023 138.105 48.757 137.807 49.2263C137.892 51.0183 137.935 53.0663 137.935 55.3703C137.977 57.6743 137.999 60.021 137.999 62.4103C137.999 62.8796 137.977 63.349 137.935 63.8183C137.935 64.245 137.913 64.693 137.871 65.1623C137.785 66.3143 137.743 67.4023 137.743 68.4263C137.785 69.4076 138.105 70.261 138.703 70.9863C139.343 71.2423 139.94 71.5623 140.495 71.9463C141.049 72.2876 141.604 72.629 142.159 72.9703ZM182.056 64.8423C181.97 65.0983 181.778 65.6103 181.479 66.3783C181.181 67.1036 180.861 67.8503 180.52 68.6183C180.178 69.3436 179.901 69.8556 179.688 70.1543C178.92 71.3063 177.853 72.1383 176.488 72.6503C175.122 73.1623 173.65 73.4183 172.072 73.4183C170.28 73.4183 168.53 73.1196 166.824 72.5223C165.117 71.925 163.794 71.1356 162.856 70.1543C162.685 71.093 162.578 72.245 162.536 73.6103C162.493 74.9756 162.493 76.3196 162.536 77.6423C162.621 78.965 162.728 80.053 162.856 80.9063C163.496 81.333 164.2 81.717 164.968 82.0583C165.778 82.3996 166.589 82.6983 167.4 82.9543C167.058 83.9356 166.376 84.5756 165.352 84.8743C164.37 85.2156 163.24 85.365 161.96 85.3223C161.49 85.3223 161 85.301 160.488 85.2583C159.976 85.2156 159.464 85.173 158.952 85.1303C158.184 85.0876 157.437 85.045 156.712 85.0023C156.029 84.9596 155.41 84.9596 154.856 85.0023C154.429 84.789 154.216 84.405 154.216 83.8503C154.258 83.2956 154.301 82.8263 154.344 82.4423C154.386 82.3143 154.408 82.229 154.408 82.1863C155.133 81.9303 155.837 81.6743 156.52 81.4183C157.245 81.1623 157.842 80.7783 158.312 80.2663C158.354 77.2796 158.354 73.845 158.312 69.9623C158.269 66.0796 158.226 62.197 158.184 58.3143C158.184 56.5223 158.162 54.773 158.12 53.0663C158.12 51.3596 158.12 49.7383 158.12 48.2023C157.906 48.0316 157.629 47.9676 157.288 48.0103C156.989 48.053 156.648 48.0956 156.264 48.1383C155.88 48.2236 155.474 48.2876 155.048 48.3303C154.664 48.3303 154.322 48.2236 154.024 48.0103C153.682 47.7543 153.533 47.4983 153.576 47.2423C153.661 46.9436 153.789 46.6663 153.96 46.4103C154.088 46.2396 154.173 46.0903 154.216 45.9623C154.301 45.7916 154.365 45.621 154.408 45.4503C154.664 45.4076 154.898 45.365 155.112 45.3223C155.368 45.2796 155.624 45.237 155.88 45.1943C156.093 45.1516 156.306 45.109 156.52 45.0663C156.776 45.0236 157.01 44.981 157.224 44.9383C158.29 44.6823 159.314 44.5116 160.296 44.4263C161.277 44.341 162.152 44.597 162.92 45.1943C163.005 45.237 163.09 45.3223 163.176 45.4503C163.261 45.5356 163.346 45.621 163.432 45.7063C163.133 46.0903 162.898 46.6876 162.728 47.4983C162.6 48.309 162.514 49.0556 162.472 49.7383C162.429 50.3783 162.408 50.6983 162.408 50.6983C163.389 49.5463 164.37 48.4583 165.352 47.4343C166.333 46.4103 167.485 45.6636 168.808 45.1943C169.234 45.0236 169.661 44.917 170.088 44.8743C170.514 44.789 170.984 44.725 171.496 44.6823C172.733 44.6396 173.928 44.8103 175.08 45.1943C176.445 45.7063 177.661 46.5383 178.728 47.6903C179.794 48.8423 180.669 50.165 181.352 51.6583C182.205 53.621 182.717 55.7756 182.888 58.1223C183.058 60.4263 182.781 62.6663 182.056 64.8423ZM177.896 59.8503C177.981 57.3756 177.64 55.0076 176.872 52.7463C176.146 50.4423 175.101 48.7783 173.736 47.7543C172.157 47.3276 170.834 47.2423 169.768 47.4983C168.744 47.7543 167.848 48.2236 167.08 48.9063C166.141 49.717 165.373 50.6983 164.776 51.8503C164.178 52.9596 163.538 54.005 162.856 54.9863C162.6 56.821 162.472 58.6343 162.472 60.4263C162.514 62.2183 162.749 63.861 163.176 65.3543C163.517 66.549 164.029 67.6156 164.712 68.5543C165.394 69.4503 166.29 70.133 167.4 70.6023C168.253 70.9436 169.128 71.1143 170.024 71.1143C170.962 71.1143 171.709 71.029 172.264 70.8583C173.544 70.4743 174.589 69.7276 175.4 68.6183C176.21 67.509 176.808 66.1863 177.192 64.6503C177.618 63.1143 177.853 61.5143 177.896 59.8503ZM216.889 71.6903C216.462 72.6716 215.588 73.4183 214.265 73.9303C212.985 74.4423 211.598 74.6983 210.105 74.6983C208.953 74.6983 207.844 74.549 206.777 74.2503C205.753 73.9516 204.942 73.525 204.345 72.9703C203.79 71.605 203.428 70.005 203.257 68.1703C203.086 66.3356 203.001 64.3943 203.001 62.3463C203.001 61.4503 203.001 60.5543 203.001 59.6583C203.044 58.7623 203.086 57.845 203.129 56.9063C203.172 55.5836 203.193 54.261 203.193 52.9383C203.236 51.6156 203.236 50.293 203.193 48.9703C202.681 48.7996 202.126 48.7356 201.529 48.7783C200.974 48.821 200.398 48.8636 199.801 48.9063C199.63 48.949 199.46 48.9916 199.289 49.0343C199.161 49.0343 199.012 49.0343 198.841 49.0343C198.158 49.077 197.518 49.0556 196.921 48.9703C196.366 48.8423 195.918 48.501 195.577 47.9463C195.492 47.6903 195.47 47.4983 195.513 47.3703C195.598 47.2423 195.684 47.1143 195.769 46.9863C195.854 46.901 195.918 46.8156 195.961 46.7303C196.046 46.6023 196.089 46.453 196.089 46.2823C196.516 46.0263 197.134 45.877 197.945 45.8343C198.756 45.749 199.63 45.7063 200.569 45.7063C201.55 45.6636 202.425 45.5996 203.193 45.5143L203.257 45.1943C203.556 43.701 203.918 42.3143 204.345 41.0343C204.814 39.7543 205.326 38.4956 205.881 37.2583C206.18 37.301 206.436 37.301 206.649 37.2583C206.862 37.173 207.054 37.0876 207.225 37.0023C207.481 36.8743 207.758 36.789 208.057 36.7463C208.356 36.661 208.761 36.725 209.273 36.9383C208.718 38.005 208.334 39.221 208.121 40.5863C207.908 41.909 207.801 43.445 207.801 45.1943V45.2583C209.422 45.2156 210.83 45.365 212.025 45.7063C213.262 46.0476 214.222 46.7943 214.905 47.9463C214.052 48.2876 212.921 48.5223 211.513 48.6503C210.148 48.7783 209.017 48.7996 208.121 48.7143C208.078 49.653 208.014 50.613 207.929 51.5943C207.886 52.5756 207.822 53.5783 207.737 54.6023C207.566 57.2903 207.417 60.021 207.289 62.7943C207.204 65.5676 207.374 68.149 207.801 70.5383C208.484 71.0503 209.209 71.285 209.977 71.2423C210.745 71.1996 211.513 71.1143 212.281 70.9863C212.366 70.9863 212.43 70.9863 212.473 70.9863C212.516 70.9863 212.601 70.965 212.729 70.9223C213.54 70.837 214.308 70.7943 215.033 70.7943C215.758 70.7943 216.377 71.093 216.889 71.6903ZM243.302 72.7143C243.302 73.141 242.896 73.461 242.086 73.6743C241.275 73.8876 240.294 74.037 239.142 74.1223C238.032 74.165 236.966 74.1863 235.942 74.1863C235.643 74.1863 235.344 74.2076 235.046 74.2503C234.747 74.2503 234.491 74.2503 234.278 74.2503C234.15 74.2503 233.872 74.2076 233.446 74.1223C233.062 73.9943 232.635 73.909 232.166 73.8663C231.696 73.781 231.248 73.845 230.822 74.0583C230.267 73.7596 230.011 73.461 230.054 73.1623C230.096 72.821 230.182 72.4796 230.31 72.1383C230.395 72.0103 230.459 71.861 230.502 71.6903C230.544 71.5196 230.566 71.3703 230.566 71.2423C231.291 70.901 232.016 70.6023 232.742 70.3463C233.51 70.0903 234.086 69.6423 234.47 69.0023C234.47 66.485 234.448 64.1596 234.406 62.0263C234.406 59.8503 234.406 57.6743 234.406 55.4983C234.448 53.2796 234.47 50.8903 234.47 48.3303C234.043 48.117 233.595 48.0103 233.126 48.0103C232.699 48.0103 232.272 48.0316 231.845 48.0743C231.59 48.0743 231.355 48.0956 231.142 48.1383C230.928 48.1383 230.736 48.117 230.566 48.0743C230.566 47.861 230.523 47.669 230.438 47.4983C230.352 47.3276 230.246 47.157 230.118 46.9863C229.947 46.773 229.84 46.5596 229.798 46.3463C229.755 46.133 229.926 45.8556 230.31 45.5143C230.736 45.4716 231.163 45.429 231.59 45.3863C232.059 45.301 232.528 45.237 232.998 45.1943C234.107 45.0663 235.195 44.9596 236.262 44.8743C237.371 44.789 238.416 44.853 239.398 45.0663V45.1943C239.398 47.3276 239.355 49.6743 239.27 52.2343C239.227 54.7943 239.142 57.3543 239.014 59.9143C238.928 62.4743 238.822 64.8423 238.694 67.0183C238.694 67.1036 238.694 67.2743 238.694 67.5303C238.651 67.7863 238.63 68.0636 238.63 68.3623C238.63 68.6183 238.651 68.8316 238.694 69.0023C238.822 69.4716 239.12 69.8556 239.59 70.1543C240.102 70.4103 240.614 70.645 241.126 70.8583C241.68 71.0716 242.171 71.3276 242.598 71.6263C243.067 71.8823 243.302 72.245 243.302 72.7143ZM239.398 35.5943C239.867 36.6183 239.931 37.5356 239.59 38.3463C239.291 39.157 238.694 39.7116 237.798 40.0103C236.902 40.309 235.792 40.245 234.47 39.8183C233.702 38.7943 233.403 37.813 233.574 36.8743C233.744 35.9356 234.128 35.189 234.726 34.6343C235.408 34.037 236.219 33.7596 237.158 33.8023C238.139 33.845 238.886 34.4423 239.398 35.5943ZM282.224 55.4983C282.48 57.845 282.373 60.213 281.904 62.6023C281.477 64.949 280.88 67.1463 280.112 69.1943C279.386 69.4503 278.768 69.8556 278.256 70.4103C277.786 70.965 277.274 71.477 276.72 71.9463C276.208 72.4156 275.461 72.693 274.48 72.7783C274.266 72.7356 274.138 72.7783 274.096 72.9063C274.053 73.0343 274.032 73.1836 274.032 73.3543C274.032 73.7383 273.946 73.9516 273.776 73.9943C272.026 74.677 270.277 75.0183 268.528 75.0183C266.608 75.0183 264.858 74.6343 263.28 73.8663C261.701 73.0983 260.314 72.053 259.12 70.7303C257.754 69.237 256.688 67.4876 255.92 65.4823C255.194 63.477 254.81 61.3863 254.768 59.2103C254.768 57.717 254.938 56.245 255.28 54.7943C255.664 53.301 256.24 51.893 257.008 50.5703C257.178 50.2716 257.434 50.0156 257.776 49.8023C258.16 49.5463 258.501 49.2263 258.8 48.8423C259.397 48.117 259.994 47.4343 260.592 46.7943C261.232 46.1116 262.064 45.5783 263.088 45.1943C263.301 45.109 263.578 45.0236 263.92 44.9383C264.986 44.6396 266.16 44.4263 267.44 44.2983C268.762 44.1703 269.829 44.149 270.64 44.2343C271.834 44.3623 273.008 44.6823 274.16 45.1943C276.208 46.133 278 47.541 279.536 49.4183C281.072 51.2956 281.968 53.3223 282.224 55.4983ZM277.552 58.5703C277.509 57.4183 277.296 56.181 276.912 54.8583C276.57 53.493 276.165 52.2556 275.696 51.1463C275.226 49.9943 274.821 49.2263 274.48 48.8423C273.925 48.117 273.157 47.6476 272.176 47.4343C271.237 47.1783 270.469 47.029 269.872 46.9863C268.293 46.8583 266.906 47.0716 265.712 47.6263C264.517 48.181 263.514 48.949 262.704 49.9303C261.765 51.125 261.061 52.5543 260.592 54.2183C260.165 55.8823 259.952 57.589 259.952 59.3383C259.994 61.941 260.506 64.437 261.488 66.8263C262.512 69.173 263.941 70.8796 265.776 71.9463C267.696 72.245 269.338 72.181 270.704 71.7543C272.112 71.285 273.285 70.581 274.224 69.6423C275.461 68.3623 276.336 66.741 276.848 64.7783C277.402 62.8156 277.637 60.7463 277.552 58.5703ZM325.561 72.6503C325.433 73.1623 324.963 73.525 324.153 73.7383C323.385 73.9516 322.531 74.0796 321.593 74.1223C320.654 74.165 319.843 74.165 319.161 74.1223C318.222 74.037 317.262 73.8663 316.281 73.6103C315.342 73.3116 314.531 73.141 313.849 73.0983C313.849 72.373 314.041 71.861 314.425 71.5623C314.851 71.2636 315.321 71.029 315.833 70.8583C316.387 70.645 316.835 70.3463 317.177 69.9623C317.219 69.0663 317.262 67.957 317.305 66.6343C317.39 65.269 317.454 63.8183 317.497 62.2823C317.582 60.7463 317.625 59.2956 317.625 57.9303C317.625 56.0103 317.475 54.2396 317.177 52.6183C316.878 50.9543 316.259 49.653 315.321 48.7143C313.401 48.2023 311.758 48.1383 310.393 48.5223C309.07 48.9063 307.961 49.589 307.065 50.5703C305.955 51.8076 305.166 53.429 304.697 55.4343C304.227 57.4396 303.971 59.573 303.929 61.8343C303.929 63.3703 303.993 64.9063 304.121 66.4423C304.291 67.9356 304.505 69.365 304.76 70.7303C305.23 71.0716 305.806 71.285 306.489 71.3703C307.171 71.4556 307.726 71.7116 308.153 72.1383C308.067 72.7783 307.705 73.2263 307.065 73.4823C306.467 73.6956 305.742 73.845 304.889 73.9303C304.419 73.973 303.929 73.9943 303.417 73.9943C302.905 73.9943 302.393 73.973 301.881 73.9303C301.454 73.9303 301.027 73.9303 300.601 73.9303C300.174 73.9303 299.769 73.9303 299.385 73.9303C299.171 73.9303 298.958 73.9516 298.745 73.9943C298.574 73.9943 298.382 73.9943 298.169 73.9943C297.614 74.0796 297.102 74.1223 296.633 74.1223C296.206 74.0796 295.886 73.845 295.673 73.4183C295.545 72.8636 295.63 72.373 295.929 71.9463C296.142 71.605 296.483 71.3916 296.953 71.3063C297.422 71.1783 297.891 71.0716 298.361 70.9863C298.83 70.8583 299.171 70.6236 299.385 70.2823C299.726 66.9116 299.854 63.3276 299.769 59.5303C299.683 55.733 299.555 51.957 299.385 48.2023C299.257 48.0743 299.043 48.053 298.745 48.1383C298.489 48.181 298.211 48.2663 297.913 48.3943C297.657 48.4796 297.401 48.565 297.145 48.6503C296.889 48.693 296.654 48.7143 296.441 48.7143C295.758 48.501 295.395 48.053 295.353 47.3703C295.353 46.6876 295.374 46.1543 295.417 45.7703C295.929 45.685 296.441 45.5996 296.953 45.5143C297.507 45.3863 298.041 45.2796 298.553 45.1943C299.107 45.0663 299.641 44.9596 300.153 44.8743C300.665 44.789 301.155 44.7463 301.625 44.7463C302.009 44.7463 302.371 44.7676 302.713 44.8103C303.054 44.853 303.374 44.981 303.673 45.1943C303.971 45.365 304.249 45.6423 304.505 46.0263C304.505 46.4103 304.462 46.7303 304.377 46.9863C304.291 47.1996 304.206 47.413 304.121 47.6263C303.993 47.8823 303.886 48.1596 303.801 48.4583C303.758 48.757 303.822 49.1836 303.993 49.7383C304.547 49.4396 305.081 49.013 305.593 48.4583C306.105 47.9036 306.659 47.349 307.257 46.7943C307.897 46.2396 308.622 45.8343 309.433 45.5783C310.073 45.365 310.67 45.237 311.225 45.1943C311.95 45.109 312.654 45.109 313.337 45.1943C315.086 45.365 316.686 45.9196 318.137 46.8583C319.63 47.797 320.782 48.821 321.593 49.9303C321.593 50.0583 321.593 50.2503 321.593 50.5063C321.678 53.3223 321.742 56.501 321.785 60.0423C321.827 63.541 321.763 66.9543 321.593 70.2823C322.275 70.6663 323.001 71.0076 323.769 71.3063C324.537 71.5623 325.134 72.0103 325.561 72.6503Z" fill="white"/>
<path d="M363.75 2.77888L500.059 18.4343L487.851 124.736L352.322 109.17L368.272 57.4272L368.459 56.8202L368.153 56.2635L351.44 25.8205L363.75 2.77888Z" fill="#FFAAAA" stroke="black" stroke-width="3"/>
<path d="M406.742 82.8674C407.335 82.9356 407.822 83.1847 408.202 83.6149C408.587 84.0027 408.748 84.4721 408.685 85.0232C408.621 85.5742 408.356 86.0161 407.888 86.3489C407.425 86.6394 406.897 86.7505 406.304 86.6823L381.698 83.8563C381.104 83.7881 380.62 83.5177 380.245 83.0452C379.87 82.5726 379.716 82.0396 379.784 81.4462L384.837 37.4474C384.906 36.854 385.176 36.3697 385.649 35.9945C386.121 35.6193 386.654 35.4658 387.248 35.5339L391.062 35.9721C391.656 36.0402 392.14 36.3106 392.515 36.7831C392.891 37.2557 393.044 37.7887 392.976 38.3821L388.113 80.7278L406.742 82.8674ZM445.496 88.8001C445.542 89.1489 445.558 89.3869 445.543 89.5141C445.416 90.6162 444.717 91.0942 443.446 90.9481L440.203 90.5757C438.974 90.4345 438.281 89.7323 438.126 88.4689L436.795 77.6222L423.76 76.1252L419.941 86.3804C419.504 87.5756 418.67 88.1026 417.441 87.9614L414.198 87.589C412.926 87.4429 412.354 86.8189 412.48 85.7168C412.495 85.5896 412.564 85.3613 412.688 85.032L429.717 42.2153C430.15 41.0626 431.002 40.5592 432.274 40.7052L436.47 41.1872C437.742 41.3333 438.458 42.0168 438.618 43.2377L445.496 88.8001ZM425.089 72.4125L436.279 73.6978L433.313 50.1656L425.089 72.4125ZM455.761 45.4643C455.917 44.1079 456.701 43.4464 458.115 43.4799C459.872 43.5099 461.516 43.5914 463.047 43.7243C464.625 43.8196 466.092 43.9452 467.449 44.101C472.027 44.6268 475.63 45.5989 478.259 47.0174C480.892 48.3936 482.712 50.1272 483.717 52.2182C484.769 54.2717 485.147 56.5913 484.85 59.177C484.558 61.7203 483.624 63.8677 482.049 65.6194C480.521 67.3336 477.939 68.4973 474.304 69.1105C480.818 72.2208 483.764 76.4887 483.141 81.9144C482.805 84.8392 481.858 87.2858 480.301 89.2543C478.791 91.1853 476.507 92.555 473.451 93.3636C470.4 94.1298 466.437 94.2329 461.562 93.673C460.248 93.5221 458.833 93.3167 457.317 93.0566C455.838 92.8438 454.261 92.5553 452.585 92.191C451.158 91.8983 450.52 91.095 450.671 89.7809L455.761 45.4643ZM462.998 47.5194L460.953 65.3224C464.99 65.7001 468.234 65.6862 470.685 65.2806C473.142 64.8326 474.952 64.0312 476.115 62.8764C477.326 61.6841 478.033 60.1978 478.238 58.4175C478.437 56.6796 478.276 55.0935 477.754 53.6592C477.278 52.1874 476.26 50.9538 474.7 49.9586C473.139 48.9633 470.896 48.2978 467.972 47.9619C467.336 47.8888 466.528 47.8175 465.548 47.7479C464.616 47.6408 463.766 47.5647 462.998 47.5194ZM458.185 89.42C458.774 89.5305 459.45 89.6296 460.213 89.7172C460.976 89.8049 461.59 89.8755 462.057 89.929C466.168 90.4012 469.4 89.9349 471.751 88.5301C474.108 87.0829 475.488 84.6001 475.892 81.0819C476.267 77.818 475.297 75.2371 472.981 73.3391C470.665 71.4412 466.51 70.0406 460.515 69.1373L458.185 89.42Z" fill="black"/>
</svg>
