<svg width="112" height="136" viewBox="0 0 112 136" fill="none" xmlns="http://www.w3.org/2000/svg">
<path d="M101 130.5C103 130.5 104.843 129.414 105.812 127.664C106.781 125.915 106.723 123.777 105.662 122.081L70.5 65.9203V11C70.5 7.96243 68.0376 5.5 65 5.5H47.5C44.4624 5.5 42 7.96243 42 11V65.9018L6.35654 122.052C5.28132 123.746 5.21373 125.891 6.18016 127.649C7.14659 129.408 8.99371 130.5 11 130.5H101Z" stroke="black" stroke-width="11" stroke-miterlimit="2.3662" stroke-linejoin="round"/>
<line x1="34.5" y1="5.5" x2="76.5" y2="5.5" stroke="black" stroke-width="11" stroke-linecap="round"/>
<path d="M37.8525 91.2307C37.9444 91.087 38.1025 91.001 38.2724 91.016C39.5576 91.1295 45.358 92.0493 55 99.5C64.8781 107.133 77.1753 101.057 79.5811 99.7382C79.8197 99.6075 80.1168 99.6835 80.2628 99.913L92.044 118.426C92.8913 119.758 91.9348 121.5 90.3567 121.5H22.1525C20.5724 121.5 19.6163 119.754 20.4675 118.423L37.8525 91.2307Z" fill="#FFAAAA" stroke="black" stroke-width="3"/>
<path d="M48.5128 9.5H70.359L58.0705 33.7188L74 64.2344L59.891 102.5L62.6218 67.1406L38.5 35.1719L48.5128 9.5Z" fill="#B9EDE7" stroke="black" stroke-width="3"/>
</svg>
