<svg xmlns="http://www.w3.org/2000/svg" viewBox="0 0 500 500"><g id="freepik--background-complete--inject-102"><rect y="382.4" width="500" height="0.25" style="fill:#ebebeb"></rect><rect x="416.78" y="398.49" width="33.12" height="0.25" style="fill:#ebebeb"></rect><rect x="322.53" y="401.21" width="8.69" height="0.25" style="fill:#ebebeb"></rect><rect x="396.59" y="389.21" width="19.19" height="0.25" style="fill:#ebebeb"></rect><rect x="52.46" y="390.89" width="43.19" height="0.25" style="fill:#ebebeb"></rect><rect x="104.56" y="390.89" width="6.33" height="0.25" style="fill:#ebebeb"></rect><rect x="131.47" y="395.11" width="93.68" height="0.25" style="fill:#ebebeb"></rect><path d="M237,337.8H43.91a5.71,5.71,0,0,1-5.7-5.71V60.66A5.71,5.71,0,0,1,43.91,55H237a5.71,5.71,0,0,1,5.71,5.71V332.09A5.71,5.71,0,0,1,237,337.8ZM43.91,55.2a5.46,5.46,0,0,0-5.45,5.46V332.09a5.46,5.46,0,0,0,5.45,5.46H237a5.47,5.47,0,0,0,5.46-5.46V60.66A5.47,5.47,0,0,0,237,55.2Z" style="fill:#ebebeb"></path><path d="M453.31,337.8H260.21a5.72,5.72,0,0,1-5.71-5.71V60.66A5.72,5.72,0,0,1,260.21,55h193.1A5.71,5.71,0,0,1,459,60.66V332.09A5.71,5.71,0,0,1,453.31,337.8ZM260.21,55.2a5.47,5.47,0,0,0-5.46,5.46V332.09a5.47,5.47,0,0,0,5.46,5.46h193.1a5.47,5.47,0,0,0,5.46-5.46V60.66a5.47,5.47,0,0,0-5.46-5.46Z" style="fill:#ebebeb"></path><rect x="184.25" y="111.39" width="91.95" height="207.14" transform="translate(460.45 429.92) rotate(180)" style="fill:#ebebeb"></rect><rect x="130.54" y="172.45" width="199.37" height="85.01" transform="translate(445.19 -15.26) rotate(90)" style="fill:#fafafa"></rect><rect x="229.25" y="114.28" width="1.95" height="202.31" transform="translate(460.45 430.86) rotate(180)" style="fill:#f5f5f5"></rect><rect x="182.13" y="108.7" width="96.19" height="9.75" transform="translate(460.45 227.14) rotate(180)" style="fill:#e0e0e0"></rect><rect x="182.13" y="119.52" width="96.19" height="1.16" transform="translate(460.45 240.2) rotate(180)" style="fill:#f5f5f5"></rect><rect x="182.13" y="122.15" width="96.19" height="1.16" transform="translate(460.45 245.45) rotate(180)" style="fill:#f5f5f5"></rect><rect x="182.13" y="124.77" width="96.19" height="1.16" transform="translate(460.45 250.69) rotate(180)" style="fill:#f5f5f5"></rect><rect x="182.13" y="127.39" width="96.19" height="1.16" transform="translate(460.45 255.94) rotate(180)" style="fill:#f5f5f5"></rect><rect x="182.13" y="130.01" width="96.19" height="1.16" transform="translate(460.45 261.18) rotate(180)" style="fill:#f5f5f5"></rect><rect x="182.13" y="132.64" width="96.19" height="1.16" transform="translate(460.45 266.43) rotate(180)" style="fill:#f5f5f5"></rect><rect x="182.13" y="135.26" width="96.19" height="1.16" transform="translate(460.45 271.67) rotate(180)" style="fill:#f5f5f5"></rect><rect x="182.13" y="137.88" width="96.19" height="1.16" transform="translate(460.45 276.92) rotate(180)" style="fill:#f5f5f5"></rect><rect x="182.13" y="140.5" width="96.19" height="1.16" transform="translate(460.45 282.16) rotate(180)" style="fill:#f5f5f5"></rect><rect x="182.13" y="143.13" width="96.19" height="1.16" transform="translate(460.45 287.41) rotate(180)" style="fill:#f5f5f5"></rect><rect x="182.13" y="145.75" width="96.19" height="1.16" transform="translate(460.45 292.65) rotate(180)" style="fill:#f5f5f5"></rect><rect x="182.13" y="148.37" width="96.19" height="1.16" transform="translate(460.45 297.9) rotate(180)" style="fill:#f5f5f5"></rect><rect x="182.13" y="150.99" width="96.19" height="1.16" transform="translate(460.45 303.14) rotate(180)" style="fill:#f5f5f5"></rect><rect x="182.13" y="153.62" width="96.19" height="1.16" transform="translate(460.45 308.39) rotate(180)" style="fill:#f5f5f5"></rect><rect x="182.13" y="156.24" width="96.19" height="1.16" transform="translate(460.45 313.63) rotate(180)" style="fill:#f5f5f5"></rect><rect x="182.13" y="158.86" width="96.19" height="1.16" transform="translate(460.45 318.88) rotate(180)" style="fill:#f5f5f5"></rect><rect x="182.13" y="161.48" width="96.19" height="1.16" transform="translate(460.45 324.12) rotate(180)" style="fill:#f5f5f5"></rect><rect x="182.13" y="164.11" width="96.19" height="1.16" transform="translate(460.45 329.37) rotate(180)" style="fill:#f5f5f5"></rect><rect x="75.39" y="111.39" width="91.95" height="207.14" transform="translate(242.73 429.92) rotate(180)" style="fill:#ebebeb"></rect><rect x="21.68" y="172.45" width="199.37" height="85.01" transform="translate(336.33 93.6) rotate(90)" style="fill:#fafafa"></rect><rect x="120.39" y="114.28" width="1.95" height="202.31" transform="translate(242.73 430.86) rotate(180)" style="fill:#f5f5f5"></rect><rect x="73.27" y="108.7" width="96.19" height="9.75" transform="translate(242.73 227.14) rotate(180)" style="fill:#e0e0e0"></rect><rect x="73.27" y="119.52" width="96.19" height="1.16" transform="translate(242.73 240.2) rotate(180)" style="fill:#f5f5f5"></rect><rect x="73.27" y="122.15" width="96.19" height="1.16" transform="translate(242.73 245.45) rotate(180)" style="fill:#f5f5f5"></rect><rect x="73.27" y="124.77" width="96.19" height="1.16" transform="translate(242.73 250.69) rotate(180)" style="fill:#f5f5f5"></rect><rect x="73.27" y="127.39" width="96.19" height="1.16" transform="translate(242.73 255.94) rotate(180)" style="fill:#f5f5f5"></rect><rect x="73.27" y="130.01" width="96.19" height="1.16" transform="translate(242.73 261.18) rotate(180)" style="fill:#f5f5f5"></rect><rect x="73.27" y="132.64" width="96.19" height="1.16" transform="translate(242.73 266.43) rotate(180)" style="fill:#f5f5f5"></rect><rect x="73.27" y="135.26" width="96.19" height="1.16" transform="translate(242.73 271.67) rotate(180)" style="fill:#f5f5f5"></rect><rect x="73.27" y="137.88" width="96.19" height="1.16" transform="translate(242.73 276.92) rotate(180)" style="fill:#f5f5f5"></rect><rect x="73.27" y="140.5" width="96.19" height="1.16" transform="translate(242.73 282.16) rotate(180)" style="fill:#f5f5f5"></rect><rect x="73.27" y="143.13" width="96.19" height="1.16" transform="translate(242.73 287.41) rotate(180)" style="fill:#f5f5f5"></rect><rect x="73.27" y="145.75" width="96.19" height="1.16" transform="translate(242.73 292.65) rotate(180)" style="fill:#f5f5f5"></rect><rect x="73.27" y="148.37" width="96.19" height="1.16" transform="translate(242.73 297.9) rotate(180)" style="fill:#f5f5f5"></rect><rect x="73.27" y="150.99" width="96.19" height="1.16" transform="translate(242.73 303.14) rotate(180)" style="fill:#f5f5f5"></rect><rect x="73.27" y="153.62" width="96.19" height="1.16" transform="translate(242.73 308.39) rotate(180)" style="fill:#f5f5f5"></rect><rect x="73.27" y="156.24" width="96.19" height="1.16" transform="translate(242.73 313.63) rotate(180)" style="fill:#f5f5f5"></rect><rect x="73.27" y="158.86" width="96.19" height="1.16" transform="translate(242.73 318.88) rotate(180)" style="fill:#f5f5f5"></rect><rect x="73.27" y="161.48" width="96.19" height="1.16" transform="translate(242.73 324.12) rotate(180)" style="fill:#f5f5f5"></rect><rect x="73.27" y="164.11" width="96.19" height="1.16" transform="translate(242.73 329.37) rotate(180)" style="fill:#f5f5f5"></rect><rect x="323.68" y="127.53" width="89.91" height="115.7" transform="translate(554.02 -183.25) rotate(90)" style="fill:#e0e0e0"></rect><rect x="312.39" y="142.03" width="112.49" height="86.7" style="fill:#ebebeb"></rect><rect x="370.02" y="157.69" width="1" height="12.09" style="fill:#e0e0e0"></rect><polygon points="398.52 208.71 397.52 208.71 397.52 170.28 347.49 170.28 347.49 192.11 346.49 192.11 346.49 169.28 398.52 169.28 398.52 208.71" style="fill:#e0e0e0"></polygon><polygon points="332.63 204.41 331.63 204.41 331.63 191.61 360.69 191.61 360.69 204 359.69 204 359.69 192.61 332.63 192.61 332.63 204.41" style="fill:#e0e0e0"></polygon><rect x="357.62" y="153.25" width="25.81" height="8.88" transform="translate(741.05 315.39) rotate(180)" style="fill:#f5f5f5"></rect><rect x="334.31" y="174.57" width="24.6" height="9.65" transform="translate(693.21 358.79) rotate(180)" style="fill:#f5f5f5"></rect><rect x="351.74" y="199.02" width="16.9" height="9.96" transform="translate(720.38 407.99) rotate(180)" style="fill:#f5f5f5"></rect><rect x="323.09" y="200.63" width="18.09" height="7.56" transform="translate(664.27 408.82) rotate(180)" style="fill:#f5f5f5"></rect><rect x="381.94" y="176.61" width="27.95" height="12.89" transform="translate(791.83 366.12) rotate(180)" style="fill:#f5f5f5"></rect><rect x="389.09" y="203.99" width="17.85" height="9.42" transform="translate(796.03 417.41) rotate(180)" style="fill:#f5f5f5"></rect><rect x="367.8" y="167.37" width="5.45" height="5.45" transform="translate(752.8 28.38) rotate(135)" style="fill:#f5f5f5"></rect><rect x="344.26" y="189.39" width="5.45" height="5.45" transform="translate(728.18 82.6) rotate(135)" style="fill:#f5f5f5"></rect><circle cx="368.64" cy="111.48" r="16.3" style="fill:#e0e0e0"></circle><circle cx="368.64" cy="111.48" r="13.86" style="fill:#f0f0f0"></circle><polyline points="367.98 101.97 367.98 111.66 361.56 108.02" style="fill:#f0f0f0"></polyline><path d="M368,112.66a1.05,1.05,0,0,1-.49-.13l-6.42-3.64a1,1,0,0,1,1-1.74l4.93,2.79v-8a1,1,0,0,1,2,0v9.69a1,1,0,0,1-.49.86A1,1,0,0,1,368,112.66Z" style="fill:#e0e0e0"></path></g><g id="freepik--Shadow--inject-102"><ellipse id="freepik--path--inject-102" cx="250" cy="416.24" rx="193.89" ry="11.32" style="fill:#f5f5f5"></ellipse></g><g id="freepik--character-1--inject-102"><path d="M126.65,277.07s-14.16-3.68-25.33,0-15.91,18.14-14.85,18.7l1,.55s.58,27.43,7.28,30.59,27.48,0,27.48,0Z" style="fill:#263238"></path><path d="M126.65,277.07s-14.16-3.68-25.33,0-15.91,18.14-14.85,18.7l1,.55s.58,27.43,7.28,30.59,27.48,0,27.48,0Z" style="fill:#fff;opacity:0.30000000000000004"></path><path d="M114,414.44c3,0,9.48-11.78,10.19-14.12,1.58-5.21.47-7-3.26-7.59-.92-.15-3.6.9-3.6.9l-11-.36S89.64,415,95.37,413.94c7.51-1.45,16.68-7.76,16.68-7.76s-.78,3.6-.92,4.38C110.79,412.37,110.34,414.44,114,414.44Z" style="fill:#263238"></path><path d="M114,414.44c3,0,9.48-11.78,10.19-14.12,1.58-5.21.47-7-3.26-7.59-.92-.15-3.6.9-3.6.9l-11-.36S89.64,415,95.37,413.94c7.51-1.45,16.68-7.76,16.68-7.76s-.78,3.6-.92,4.38C110.79,412.37,110.34,414.44,114,414.44Z" style="opacity:0.30000000000000004"></path><path d="M142.37,363s-.52.07-1.43.29a38.16,38.16,0,0,0-17.57,10.39,34.31,34.31,0,0,0-4.32,5.7c-8,12.62-16.7,35.21-26.52,35.21-6.07,0-15,0-17.14-13-1.61-9.87,21.17-52.23,21.17-52.23l3.35-16.1.11-.52,19.25-.8,18.37-.77L139.26,342,142,360.49Z" style="fill:#263238"></path><path d="M143.85,341.46s-1.78.24-4.59.54c-4.45.48-11.52,1.1-18.37,1.14-9.48.07-18.54-.95-19.75-4.93-.36-1.17-.77-2.88-1.23-5-2.9-13.36-7.14-42.37-4-47.76,2.36-4.07,7-7.8,18-10.9l14.81,2.88,3.23.63a32.16,32.16,0,0,1,4.25.85c3.33.9,7.3,2.62,6.78,5.63a3,3,0,0,1-.26.89C140.17,291.27,143.85,341.46,143.85,341.46Z" style="fill:#263238"></path><polygon points="99 334.17 133.88 334.17 133.88 339.7 97.94 339.7 99 334.17" style="fill:#263238"></polygon><polygon points="99 334.17 133.88 334.17 133.88 339.7 97.94 339.7 99 334.17" style="fill:#fff;opacity:0.30000000000000004"></polygon><path d="M109.86,281.39l10.54-2.72c-1.29-2.21-.72-5,.23-7.68l-9.57-9.88c.55,5.56.66,15.66-3.5,18.93C108.34,280.47,109.1,280.92,109.86,281.39Z" style="fill:#ffb573"></path><path d="M115,265.14l5.66,5.85a18.11,18.11,0,0,0-.81,3c-2.29-.56-5.24-3.42-5.26-5.87A8.44,8.44,0,0,1,115,265.14Z" style="opacity:0.2"></path><path d="M111.06,271.58s4,3.6,8.75,2.37c0,0,1.23,2.58,3.63,2.68,0,0-7.23,15.37-18.35,1.12C105.09,277.75,109.51,275.45,111.06,271.58Z" style="fill:#263238"></path><path d="M105.09,276.43s13,5.25,9.5,23.12a42.32,42.32,0,0,1-16.65,26.31l-.53-1.71s8.2-5,11.16-14,1.15-24.22-7.25-31.16Z" style="fill:#263238"></path><path d="M105.09,276.43s13,5.25,9.5,23.12a42.32,42.32,0,0,1-16.65,26.31l-.53-1.71s8.2-5,11.16-14,1.15-24.22-7.25-31.16Z" style="fill:#fff;opacity:0.30000000000000004"></path><path d="M123.77,276.21s7.37,7.58,9.43,18.13l2.72-2.9s-2.65-10.13-7-14.64Z" style="fill:#263238"></path><path d="M139.26,342,142,360.49c-.35.93-.7,1.85-1.07,2.76a38.16,38.16,0,0,0-17.57,10.39,34.31,34.31,0,0,0-4.32,5.7c-.09-10.24.69-23.09,1.84-36.2.27-3.08.55-6.18.85-9.27-.85-.59-1.47-1.56-2.47-1.94-19.56-7.39-19.11-9.84-22.25-33.77l10.54-9.85s4,4.95,7,8.85c3.69,4.79,8.37,9,10.52,9.67,1.44-11.31,3.12-26,3.61-29.36l3.23.63a32.16,32.16,0,0,1,4.25.85,26.28,26.28,0,0,1,6.78,5.63,3,3,0,0,1-.26.89c-2.51,5.8,1.17,56,1.17,56S142.07,341.7,139.26,342Z" style="opacity:0.30000000000000004"></path><path d="M123.77,276.21s7.37,7.58,9.43,18.13l2.72-2.9s-2.65-10.13-7-14.64Z" style="fill:#fff;opacity:0.30000000000000004"></path><path d="M95.45,285.58a62.53,62.53,0,0,1-2.23,5.93,4.62,4.62,0,0,1-.6.82,36.78,36.78,0,0,1-3.25,3l-1,.83a10.15,10.15,0,0,1,.34-1.92,13.32,13.32,0,0,1,2.31-4.5A19.68,19.68,0,0,1,95.45,285.58Z" style="opacity:0.30000000000000004"></path><path d="M79.64,272.81s11.11-8.09,23.17-6a67.89,67.89,0,0,0-20.15,10.82Z" style="fill:#263238"></path><path d="M79.64,272.81s11.11-8.09,23.17-6a67.89,67.89,0,0,0-20.15,10.82Z" style="fill:#fff;opacity:0.5"></path><path d="M76.93,274.52s-12.1,6.53-15.44,18.29A67.86,67.86,0,0,1,80,279.32Z" style="fill:#263238"></path><path d="M76.93,274.52s-12.1,6.53-15.44,18.29A67.86,67.86,0,0,1,80,279.32Z" style="fill:#fff;opacity:0.5"></path><path d="M92.62,292.33a36.78,36.78,0,0,1-3.25,3l-.69-1.09-11.35-18L81,273.92l10,15.83Z" style="fill:#263238"></path><rect x="77.2" y="272.26" width="5.54" height="8.17" transform="translate(-134.99 85.15) rotate(-32.21)" style="fill:#263238"></rect><rect x="77.2" y="272.26" width="5.54" height="8.17" transform="translate(-134.99 85.15) rotate(-32.21)" style="fill:#fff;opacity:0.30000000000000004"></rect><rect x="128.91" y="177.91" width="141.83" height="236.53" style="fill:#407BFF"></rect><rect x="128.91" y="177.91" width="141.83" height="236.53" style="fill:#fff;opacity:0.7000000000000001"></rect><rect x="128.91" y="177.91" width="4.97" height="236.53" style="opacity:0.1"></rect><rect x="172.43" y="195.97" width="15.59" height="15.59" transform="translate(-42.89 48.13) rotate(-13.61)" style="fill:#fff;opacity:0.7000000000000001"></rect><rect x="194.91" y="200.69" width="15.59" height="15.59" transform="translate(17.44 -15.64) rotate(4.62)" style="fill:#fff"></rect><rect x="239.74" y="196.94" width="15.59" height="15.59" transform="translate(17.28 -19.26) rotate(4.62)" style="fill:#fff"></rect><rect x="227.07" y="205.64" width="21.69" height="30.97" style="fill:#fff;opacity:0.7000000000000001"></rect><rect x="186.77" y="236.05" width="21.41" height="21.41" style="fill:#fff;opacity:0.7000000000000001"></rect><path d="M108.86,288.53c1,4.6,2,9.33,3,13.94.49,2.3,1,4.59,1.51,6.77.27,1.09.56,2.15.82,3.07.14.45.28.89.36,1.11s.06.17-.08,0a4.14,4.14,0,0,0-.53-.58c-.06,0,0,0,0,0l0,.05v0l.08.06.29.26.62.51,1.35,1.11,2.79,2.24,5.63,4.57c3.75,3.09,7.48,6.24,11.07,9.58h0a3.51,3.51,0,0,1-3.85,5.77c-4.49-2-8.82-4.31-13.11-6.66-2.14-1.19-4.28-2.39-6.39-3.65l-3.18-1.92-1.62-1-.84-.57-.43-.29-.11-.08-.16-.12-.32-.24c-.23-.19-.38-.3-.66-.54a9.91,9.91,0,0,1-1.12-1.28,13.71,13.71,0,0,1-1-1.58c-.46-.87-.77-1.55-1.06-2.24-.58-1.36-1-2.61-1.44-3.85-.85-2.48-1.56-4.89-2.2-7.31-1.29-4.84-2.39-9.6-3.22-14.53a7,7,0,0,1,13.72-2.73Z" style="fill:#263238"></path><path d="M126.05,242.69c5.89,1.62,5.32,14.61,3,16.2C124.68,261.86,118.74,240.67,126.05,242.69Z" style="fill:#263238"></path><path d="M131.34,259.46h0a23.16,23.16,0,0,1-.06,4c-.77,7.58-9.41,12.16-15.76,7.21a7.59,7.59,0,0,1-.68-.57c-3.59-3.22-4.07-7.48-5.43-14.36A10.14,10.14,0,0,1,122,243.91C128.16,245.53,130.93,253,131.34,259.46Z" style="fill:#ffb573"></path><path d="M131.34,259.47a23.16,23.16,0,0,1-.06,4c-.77,7.58-9.41,12.16-15.76,7.21a7.59,7.59,0,0,1-.68-.57c-.15-2.13.25-4.59-.4-6.76-1.1-3.69,0-4.81,0-4.81s.77,3.1,2.16,4.15c0,0,3.29-2.5,5.33-2.68s3.41,2.43,3.41,2.43,2.15-.68,3.42.69A5.1,5.1,0,0,0,131.34,259.47Z" style="fill:#263238"></path><path d="M131.34,259.47a23.16,23.16,0,0,1-.06,4c-.77,7.58-9.41,12.16-15.76,7.21a7.59,7.59,0,0,1-.68-.57c-.15-2.13.25-4.59-.4-6.76-1.1-3.69,0-4.81,0-4.81s.77,3.1,2.16,4.15c0,0,3.29-2.5,5.33-2.68s3.41,2.43,3.41,2.43,2.15-.68,3.42.69A5.1,5.1,0,0,0,131.34,259.47Z" style="fill:#fff;opacity:0.4"></path><path d="M102.69,250.85c.44,4.39,6.81,15.16,9.85,14.48s3.07-7.52.71-13.38c2.45-1.09,18-3.8,13.4-10.62Z" style="fill:#263238"></path><path d="M120.85,256.35c.08.6.46,1,.85,1s.65-.58.57-1.18-.47-1-.86-1S120.77,255.75,120.85,256.35Z" style="fill:#263238"></path><path d="M127.62,255.45c.08.6.46,1.05.85,1s.65-.58.57-1.18-.46-1.05-.85-1S127.54,254.86,127.62,255.45Z" style="fill:#263238"></path><path d="M125.51,256a21.68,21.68,0,0,0,3.54,4.74,3.49,3.49,0,0,1-2.79.92Z" style="fill:#ed893e"></path><path d="M119.55,254.51a.32.32,0,0,0,.27,0,2.85,2.85,0,0,1,2.56.27.34.34,0,0,0,.49-.07.36.36,0,0,0-.06-.5,3.55,3.55,0,0,0-3.22-.37.36.36,0,0,0-.22.46A.35.35,0,0,0,119.55,254.51Z" style="fill:#263238"></path><path d="M129.94,251.93a.48.48,0,0,0,0-.12.36.36,0,0,0-.4-.3,3.52,3.52,0,0,0-2.69,1.81.35.35,0,0,0,.17.47.34.34,0,0,0,.47-.17,2.86,2.86,0,0,1,2.15-1.41A.35.35,0,0,0,129.94,251.93Z" style="fill:#263238"></path><path d="M107.17,264.33a7.05,7.05,0,0,0,4.77,2.51c2.47.21,3.25-2.11,2.17-4.2-1-1.88-3.41-4.25-5.7-3.49A3.18,3.18,0,0,0,107.17,264.33Z" style="fill:#ffb573"></path><path d="M126,264.05a19,19,0,0,0-1.5,2.38l-.47-.16c-2.12-.74-2.86-1.79-3-2.72a2.9,2.9,0,0,1,.11-1.37,2.46,2.46,0,0,1,.32-.72,10.54,10.54,0,0,0,3.86,2.32C125.74,264,126,264.05,126,264.05Z" style="fill:#263238"></path><path d="M125.3,263.78l-.46.69c-2-.7-3.31-1.46-3.72-2.29a2.46,2.46,0,0,1,.32-.72A10.54,10.54,0,0,0,125.3,263.78Z" style="fill:#fff"></path><path d="M124.05,266.27c-2.12-.74-2.86-1.79-3-2.72a7.21,7.21,0,0,1,2.2,1.29A2.69,2.69,0,0,1,124.05,266.27Z" style="fill:#de5753"></path><path d="M108.57,247.77s-1.82,8.31-4,10.1l-.89-2.87s2-3.5,2-5.94S108.57,247.77,108.57,247.77Z" style="fill:#263238"></path><path d="M108.57,247.77s-1.82,8.31-4,10.1l-.89-2.87s2-3.5,2-5.94S108.57,247.77,108.57,247.77Z" style="fill:#fff;opacity:0.2"></path><path d="M109.09,248.58s1,18.87,10.57,22.09c7.79,2.61,10.26-3.28,10.26-3.28s-1.59,4.32-5.73,5.09c-7.21,1.33-14.08-2.93-16.88-23.72Z" style="fill:#263238"></path><path d="M109.09,248.58s1,18.87,10.57,22.09c7.79,2.61,10.26-3.28,10.26-3.28s-1.59,4.32-5.73,5.09c-7.21,1.33-14.08-2.93-16.88-23.72Z" style="fill:#fff;opacity:0.2"></path><path d="M126.68,271.16s0-.75-1.49-.61-3.4,1.57-3.35,2.15S126.17,273.27,126.68,271.16Z" style="fill:#263238"></path><path d="M101.86,254.26a9.52,9.52,0,0,1,7.47-3.74c7,.55,11.33,1.3,17.6.5,4.15-.53,6.29-1.14,6.27-1.93,0-1.61-2-2.73-2-2.73-2.68-7.74-7.17-8.83-7.45-8.89h0s0,0,0-.05c-.34-.42-3.18-3.77-9.53-1.4-6.76,2.54-7.53,5.09-7.53,5.09-6.27,3.81-4.94,11.55-4.94,11.55S100.75,255.69,101.86,254.26Z" style="fill:#263238"></path><path d="M101.86,254.26a9.52,9.52,0,0,1,7.47-3.74c7,.55,11.33,1.3,17.6.5,4.15-.53,6.29-1.14,6.27-1.93,0-1.61-2-2.73-2-2.73-2.68-7.74-7.17-8.83-7.45-8.89h0s0,0,0-.05c-.34-.42-3.18-3.77-9.53-1.4-6.76,2.54-7.53,5.09-7.53,5.09-6.27,3.81-4.94,11.55-4.94,11.55S100.75,255.69,101.86,254.26Z" style="fill:#fff;opacity:0.30000000000000004"></path><path d="M101.7,252.66a10,10,0,0,1,7.54-5.3c5.28-.53,16.2,2.15,19,1.39s2.94-2.39,2.94-2.39c-2.68-7.74-7.17-8.83-7.45-8.89,3.2,4.41,1,6.25-3,3.87s-9.88-1.64-14.11-.23C100.37,244.92,101.7,252.66,101.7,252.66Z" style="opacity:0.1"></path><path d="M126.49,237.23c-.29-1.09-1.34-3.33-3-3.39s-6.72,1.37-7.85,1.71,5.87,7.06,8.38,6.81S127,239.16,126.49,237.23Z" style="fill:#263238"></path><path d="M126.49,237.23c-.29-1.09-1.34-3.33-3-3.39s-6.72,1.37-7.85,1.71,5.87,7.06,8.38,6.81S127,239.16,126.49,237.23Z" style="fill:#fff;opacity:0.30000000000000004"></path><path d="M126.34,237.27c.52,2-.19,3.94-1.57,4.3s-2.93-1-3.45-3,.18-3.93,1.57-4.29S125.82,235.26,126.34,237.27Z" style="opacity:0.1"></path><path d="M125.79,237.42c.44,1.69-.16,3.31-1.33,3.61s-2.47-.82-2.91-2.52.16-3.32,1.33-3.62S125.35,235.72,125.79,237.42Z" style="fill:#fff;opacity:0.7000000000000001"></path><path d="M125.47,236.86c.3,1.18-.11,2.31-.93,2.52s-1.72-.58-2-1.76.11-2.32.92-2.53S125.16,235.67,125.47,236.86Z" style="fill:#fff"></path><path d="M141.68,336.93c5.38-1.43,41.31,14.07,39.84,28.34s-8.38,8.54-9.77,14.07,7.22,12.11,2.13,19.7-18.57,15.51-30,15.51-18.19-17.18-18-25.31,9.65-23.37,10.06-35.16S136.74,338.25,141.68,336.93Z" style="fill:#263238"></path><path d="M141.68,336.93c5.38-1.43,41.31,14.07,39.84,28.34s-8.38,8.54-9.77,14.07,7.22,12.11,2.13,19.7-18.57,15.51-30,15.51-18.19-17.18-18-25.31,9.65-23.37,10.06-35.16S136.74,338.25,141.68,336.93Z" style="fill:#fff;opacity:0.30000000000000004"></path><path d="M177,371.22c-2,2.21-8.54,4.7-16.24,4.76H160c-1,0-1.93-.06-2.92-.16a32.13,32.13,0,0,1-3.3-.5,28.41,28.41,0,0,1-3.06-.75l-.15,0-.64-.22a12.51,12.51,0,0,1-2.16-1c-.25-.14-.5-.3-.74-.46a12.45,12.45,0,0,1-2-1.65,13.71,13.71,0,0,1-1.46-1.69,15.9,15.9,0,0,1-1.47-2.4c-.14-.26-.27-.52-.38-.78-2.69-5.86-2.67-13-2.75-16.08-.13-5,2.53-12.41,7.32-11.15C179.52,347.85,179.92,368.05,177,371.22Z" style="opacity:0.30000000000000004"></path><path d="M175.77,365.74a5.55,5.55,0,1,1-6.89-3.75A5.54,5.54,0,0,1,175.77,365.74Z" style="fill:#407BFF"></path><g style="opacity:0.30000000000000004"><path d="M175,366a4.72,4.72,0,1,1-5.86-3.19A4.71,4.71,0,0,1,175,366Z" style="fill:#fff"></path></g><path d="M171.44,367h0a1.29,1.29,0,0,0-.26-2.51,1.14,1.14,0,0,0-.45,0h0l-.48.15a.18.18,0,0,1-.22-.12l-.15-.51-.46.14.14.5a.17.17,0,0,1-.12.22.15.15,0,0,1-.13,0,.2.2,0,0,1-.09-.11l-.15-.5-.46.14.15.5a.18.18,0,0,1-.12.22l-1.13.33.14.47.51,0a.3.3,0,0,1,.31.21l.95,3.24a.29.29,0,0,1-.13.34l-.46.27.14.46,1.13-.33a.18.18,0,0,1,.22.12l.15.51.46-.14-.15-.5a.19.19,0,0,1,.12-.23.22.22,0,0,1,.14,0,.16.16,0,0,1,.08.1l.15.51.46-.14-.14-.5a.17.17,0,0,1,.12-.22l.48-.15h0a1.29,1.29,0,0,0-.75-2.46Zm-2.14-1.39,1-.3a.84.84,0,0,1,.81.18.78.78,0,0,1,.25.39.86.86,0,0,1-.54,1.05h0l-1,.3Zm2.1,3.39-1,.3-.48-1.64,1-.3a.85.85,0,1,1,.48,1.64Z" style="fill:#407BFF"></path><path d="M160.78,376H160c-1,0-1.93-.06-2.92-.16a32.13,32.13,0,0,1-3.3-.5,28.41,28.41,0,0,1-3.06-.75l-.15,0-.64-.22a5.54,5.54,0,0,1,10.9,1.68Z" style="fill:#407BFF"></path><g style="opacity:0.30000000000000004"><path d="M160,376c-1,0-1.93-.06-2.92-.16a32.13,32.13,0,0,1-3.3-.5,28.41,28.41,0,0,1-3.06-.75A4.71,4.71,0,0,1,160,376Z" style="fill:#fff"></path></g><path d="M157.21,373.56a1.05,1.05,0,0,0-.42-.18l-.49-.1a.18.18,0,0,1-.14-.21l.11-.52-.48-.09-.1.51a.17.17,0,0,1-.21.14.15.15,0,0,1-.11-.08.15.15,0,0,1,0-.13l.1-.52-.47-.09-.1.51a.18.18,0,0,1-.21.14l-1.16-.23-.09.47.47.21a.28.28,0,0,1,.17.33l-.32,1.59a32.13,32.13,0,0,0,3.3.5,1.28,1.28,0,0,0,.18-2.25Zm-.49,1.33a.85.85,0,0,1-1,.67h0l-1-.21.34-1.67,1,.21a.87.87,0,0,1,.63.54A.84.84,0,0,1,156.72,374.89Z" style="fill:#407BFF"></path><path d="M147.72,373.31c-.25-.14-.5-.3-.74-.46a12.45,12.45,0,0,1-2-1.65,13.71,13.71,0,0,1-1.46-1.69,15.9,15.9,0,0,1-1.47-2.4c-.14-.26-.27-.52-.38-.78a5.54,5.54,0,0,1,6.06,7Z" style="fill:#407BFF"></path><g style="opacity:0.30000000000000004"><path d="M147,372.85a12.45,12.45,0,0,1-2-1.65,13.71,13.71,0,0,1-1.46-1.69,15.9,15.9,0,0,1-1.47-2.4,4.72,4.72,0,0,1,4.69,2.9A4.66,4.66,0,0,1,147,372.85Z" style="fill:#fff"></path></g><path d="M145.36,370.46l-.48.2a.17.17,0,0,1-.23-.1.15.15,0,0,1,0-.13.18.18,0,0,1,.09-.1l.49-.2-.19-.45-.48.21a.2.2,0,0,1-.24-.1l-.45-1.09-.44.19.09.51a.21.21,0,0,1,0,.11A13.71,13.71,0,0,0,145,371.2a.12.12,0,0,1,.09-.09l.49-.21Z" style="fill:#407BFF"></path><path d="M152.77,354.47a5.55,5.55,0,1,1-7.2,3.12A5.55,5.55,0,0,1,152.77,354.47Z" style="fill:#407BFF"></path><g style="opacity:0.30000000000000004"><path d="M152.47,355.24a4.72,4.72,0,1,1-6.13,2.66A4.72,4.72,0,0,1,152.47,355.24Z" style="fill:#fff"></path></g><path d="M151.11,358.67h0a1.29,1.29,0,0,0-.73-1.66,1.27,1.27,0,0,0-1.41.32,1.05,1.05,0,0,0-.25.37h0l-.19.47a.17.17,0,0,1-.23.1l-.49-.19-.17.45.48.19a.18.18,0,0,1,.11.23.19.19,0,0,1-.1.1.17.17,0,0,1-.14,0l-.48-.19-.18.45.49.19a.19.19,0,0,1,.1.23l-.44,1.1.45.17.29-.43a.31.31,0,0,1,.36-.11l3.14,1.24a.29.29,0,0,1,.18.32l-.06.53.45.17.43-1.09a.17.17,0,0,1,.23-.1l.49.19.17-.45-.48-.19a.17.17,0,0,1-.1-.23.15.15,0,0,1,.09-.1.17.17,0,0,1,.14,0l.49.19.17-.45-.49-.19a.19.19,0,0,1-.1-.23l.19-.47h0a1.29,1.29,0,0,0-2.41-.93Zm-2.41.83.39-1a.85.85,0,0,1,.64-.52.81.81,0,0,1,.46,0,.85.85,0,0,1,.49,1.07v0l-.39,1Zm4,.43-.39,1-1.59-.63.39-1a.85.85,0,0,1,1.59.62Z" style="fill:#407BFF"></path><path d="M142.41,333.18l-8.11-2.82-4.08,3.07c-1.75,3.6,4.6,7.54,4.6,7.54l4.84,4.27,6.57-6.14Z" style="fill:#263238"></path></g><g id="freepik--Plant--inject-102"><path d="M384.43,384.17l-.91,0c0-1.36,1.13-33.32,6.69-38.73,5.72-5.56,12.44-.08,12.5,0l-.58.7c-.25-.21-6.16-5-11.29,0C385.55,351.22,384.44,383.84,384.43,384.17Z" style="fill:#263238"></path><path d="M384,390.58l-.9-.08c0-.39,3.59-38.81-10.33-54.79l.69-.6C387.6,351.38,384,390.19,384,390.58Z" style="fill:#263238"></path><path d="M384.42,386.48c-.12-1.81-2.8-44.52,7.9-54.36l.61.67c-10.37,9.55-7.63,53.19-7.6,53.63Z" style="fill:#263238"></path><path d="M383.06,386.45c0-.29-.33-29-7.94-33.34a4.83,4.83,0,0,0-4.43-.46c-4.46,1.84-6.83,10.36-6.86,10.45l-.88-.24c.1-.37,2.51-9,7.39-11.06a5.74,5.74,0,0,1,5.24.51c8.05,4.62,8.39,32.93,8.4,34.14Z" style="fill:#263238"></path><path d="M386.19,386.48c-.05-.93-1.23-22.68,4.94-30.74,1.64-2.13,3.47-3.16,5.43-3,4.39.31,7.79,6.25,7.93,6.5l-.8.45c0-.06-3.3-5.77-7.19-6-1.64-.12-3.21.78-4.64,2.66-6,7.78-4.77,29.9-4.76,30.12Z" style="fill:#263238"></path><path d="M385,389.49l-.92-.07c0-.53,3.89-52.36-2.51-61l.74-.55C388.87,336.79,385.13,387.34,385,389.49Z" style="fill:#263238"></path><path d="M368.57,357s3.95,1.46,2.77,4.9S357.68,371,357.68,371s-5.23-4.79-.43-12.59S368.46,354.5,368.57,357Z" style="fill:#407BFF"></path><path d="M368.57,357s3.95,1.46,2.77,4.9S357.68,371,357.68,371s-5.23-4.79-.43-12.59S368.46,354.5,368.57,357Z" style="fill:#fff;isolation:isolate;opacity:0.2"></path><path d="M385.74,350.42s-4.21-.18-4.45,3.45,9.11,13.65,9.11,13.65,6.68-2.41,5.24-11.46S386.78,348.19,385.74,350.42Z" style="fill:#407BFF"></path><path d="M385.74,350.42s-4.21-.18-4.45,3.45,9.11,13.65,9.11,13.65,6.68-2.41,5.24-11.46S386.78,348.19,385.74,350.42Z" style="fill:#fff;isolation:isolate;opacity:0.2"></path><path d="M389.3,333.07s-2.81-.3-2.58-2,10.9-6.1,17.2,1c0,0-4,6.93-9.86,7S389.3,333.07,389.3,333.07Z" style="fill:#407BFF"></path><path d="M389.3,333.07s-2.81-.3-2.58-2,10.9-6.1,17.2,1c0,0-4,6.93-9.86,7S389.3,333.07,389.3,333.07Z" style="fill:#fff;isolation:isolate;opacity:0.2"></path><path d="M384.07,328.92s2.54,1.23,3.25-.34-6-10.94-15.12-8.24c0,0-.24,8,4.66,11.17S384.07,328.92,384.07,328.92Z" style="fill:#407BFF"></path><path d="M384.07,328.92s2.54,1.23,3.25-.34-6-10.94-15.12-8.24c0,0-.24,8,4.66,11.17S384.07,328.92,384.07,328.92Z" style="fill:#fff;isolation:isolate;opacity:0.2"></path><path d="M397.35,355.58s-1.94-1.56.15-2.32,12.34-.55,12.45,9.6c0,0-11.94,2-13.42-1.88S397.35,355.58,397.35,355.58Z" style="fill:#407BFF"></path><path d="M397.35,355.58s-1.94-1.56.15-2.32,12.34-.55,12.45,9.6c0,0-11.94,2-13.42-1.88S397.35,355.58,397.35,355.58Z" style="fill:#fff;isolation:isolate;opacity:0.2"></path><path d="M373,332.81s1.94-1.56-.15-2.32-12.34-.55-12.44,9.6c0,0,11.93,2,13.41-1.88S373,332.81,373,332.81Z" style="fill:#407BFF"></path><path d="M373,332.81s1.94-1.56-.15-2.32-12.34-.55-12.44,9.6c0,0,11.93,2,13.41-1.88S373,332.81,373,332.81Z" style="fill:#fff;isolation:isolate;opacity:0.2"></path><path d="M379.32,341s.17-1.9-1.36-1.15-6.88,6.51-1.34,12c0,0,7.45-5.52,6.11-8.39S379.32,341,379.32,341Z" style="fill:#407BFF"></path><path d="M379.32,341s.17-1.9-1.36-1.15-6.88,6.51-1.34,12c0,0,7.45-5.52,6.11-8.39S379.32,341,379.32,341Z" style="fill:#fff;isolation:isolate;opacity:0.2"></path><path d="M399.08,343.7s-1.16-1.52.54-1.7,9.28,1.83,7.52,9.41c0,0-9.25-.69-9.65-3.84S399.08,343.7,399.08,343.7Z" style="fill:#407BFF"></path><path d="M399.08,343.7s-1.16-1.52.54-1.7,9.28,1.83,7.52,9.41c0,0-9.25-.69-9.65-3.84S399.08,343.7,399.08,343.7Z" style="fill:#fff;isolation:isolate;opacity:0.2"></path><polygon points="367.83 414.59 399.57 414.59 402.99 379.84 364.4 379.84 367.83 414.59" style="fill:#407BFF"></polygon><rect x="362.71" y="376" width="41.98" height="7.67" transform="translate(767.4 759.68) rotate(180)" style="fill:#407BFF"></rect><rect x="362.71" y="376" width="41.98" height="7.67" transform="translate(767.4 759.68) rotate(180)" style="opacity:0.2"></rect></g><g id="freepik--speech-bubble--inject-102"><path d="M381.91,153.8c-13.91,0-25.19,11-25.19,24.55a24.35,24.35,0,0,0,10.51,20,17.84,17.84,0,0,1-9.2,9A22.13,22.13,0,0,0,372.24,201a25.86,25.86,0,0,0,9.67,1.87c13.91,0,25.19-11,25.19-24.56S395.82,153.8,381.91,153.8Z" style="fill:#407BFF"></path><path d="M385.48,172.6c-.29-2.21-2.23-3.51-5.21-3.13a7,7,0,0,0-5.55,3.51l-2.64-1.49c1.49-2.7,4.18-4.49,8-5,4.76-.62,8.13,1.3,8.63,5.15.75,5.79-5.05,6.93-4.46,11.47l-3.3.43C380.29,178.11,386,176.59,385.48,172.6Zm-4.22,16.66a2.15,2.15,0,1,1,2.43,1.94A2.15,2.15,0,0,1,381.26,189.26Z" style="fill:#fff"></path></g><g id="freepik--character-2--inject-102"><path d="M229,414.62h-58.2a1.14,1.14,0,0,1-1.14-1.14v-3.71a1.15,1.15,0,0,1,1.14-1.15H226V289.81H171.72a2.09,2.09,0,0,1-2.08-2.09v-3.91H229a3,3,0,0,1,3,3V411.62A3,3,0,0,1,229,414.62Z" style="fill:#263238"></path><g style="isolation:isolate;opacity:0.30000000000000004"><path d="M232,286.81V411.62a3,3,0,0,1-3,3h-58.2a1.14,1.14,0,0,1-1.14-1.14v-3.71a1.15,1.15,0,0,1,1.14-1.15H226V289.81H171.72a2.09,2.09,0,0,1-2.08-2.09v-3.91H229A3,3,0,0,1,232,286.81Z" style="fill:#fff"></path></g><path d="M232,286.81v31.83q-3,.76-6,1.47v-30.3H171.72a2.09,2.09,0,0,1-2.08-2.09v-3.91H229A3,3,0,0,1,232,286.81Z" style="opacity:0.2"></path><path d="M349.24,397.88l-23.87-2.08V364.45H317v31.34l-24,2.09a4.12,4.12,0,0,0-3.72,4.1v3.18H353V402A4.11,4.11,0,0,0,349.24,397.88Z" style="fill:#263238"></path><path d="M349.24,397.88l-23.87-2.08V364.45H317v31.34l-24,2.09a4.12,4.12,0,0,0-3.72,4.1v3.18H353V402A4.11,4.11,0,0,0,349.24,397.88Z" style="fill:#fff;isolation:isolate;opacity:0.1"></path><path d="M297,409.1a5.49,5.49,0,1,1-5.49-5.48A5.49,5.49,0,0,1,297,409.1Z" style="fill:#263238"></path><path d="M345.23,409.1a5.49,5.49,0,1,0,5.48-5.48A5.48,5.48,0,0,0,345.23,409.1Z" style="fill:#263238"></path><path d="M315.54,344.17h11.28a0,0,0,0,1,0,0v23a3.71,3.71,0,0,1-3.71,3.71h-3.85a3.71,3.71,0,0,1-3.71-3.71v-23A0,0,0,0,1,315.54,344.17Z" style="fill:#263238"></path><path d="M315.54,344.17h11.28a0,0,0,0,1,0,0v23a3.71,3.71,0,0,1-3.71,3.71h-3.85a3.71,3.71,0,0,1-3.71-3.71v-23A0,0,0,0,1,315.54,344.17Z" style="fill:#fff;isolation:isolate;opacity:0.2"></path><path d="M345.92,282.17s-2.58,51.83-13.74,60.75h11.94s10.64-17.66,11.44-60.75Z" style="fill:#263238"></path><path d="M345.92,282.17s-2.58,51.83-13.74,60.75h11.94s10.64-17.66,11.44-60.75Z" style="fill:#fff;isolation:isolate;opacity:0.1"></path><path d="M289.48,338.62h61.91a0,0,0,0,1,0,0v4.1a4.49,4.49,0,0,1-4.49,4.49H294a4.49,4.49,0,0,1-4.49-4.49v-4.1A0,0,0,0,1,289.48,338.62Z" transform="translate(640.87 685.83) rotate(180)" style="fill:#263238"></path><rect x="287.12" y="342.92" width="66.62" height="4.29" rx="1.81" transform="translate(640.87 690.13) rotate(180)" style="fill:#263238"></rect><rect x="287.12" y="342.92" width="66.62" height="4.29" rx="1.81" transform="translate(640.87 690.13) rotate(180)" style="fill:#fff;isolation:isolate;opacity:0.6000000000000001"></rect><path d="M357.65,293.52H338.53c-5.61,0-9.65-5-9-11.25l.82-8.29c.61-6.21,5.64-11.24,11.25-11.24h19.12c5.6,0,9.65,5,9,11.24l-.81,8.29C368.29,288.48,363.25,293.52,357.65,293.52Z" style="fill:#263238"></path><g id="freepik--group--inject-102"><path d="M319.72,246.56A165.11,165.11,0,0,1,304.44,240c-2.51-1.24-5-2.56-7.47-4-1.25-.74-2.49-1.5-3.74-2.38-.62-.44-1.25-.9-1.89-1.41-.32-.25-.64-.51-1-.8l-.51-.45c-.26-.26-.51-.49-.77-.79a8.71,8.71,0,0,1-1.39-2.17,7.58,7.58,0,0,1-.65-2.73,8.57,8.57,0,0,1,1-4.4,15.62,15.62,0,0,1,3.59-4.5,42.77,42.77,0,0,1,7.39-5.17,92.09,92.09,0,0,1,15.36-6.84l2.37,5.13c-4.46,2.79-9,5.76-13,8.84a39.81,39.81,0,0,0-5.4,4.79A6,6,0,0,0,297,225c0,.14.11,0,.12-.48a2.48,2.48,0,0,0-.42-1.26c-.05-.05,0-.06-.06-.08l.28.19c.18.14.41.29.63.44.44.3.94.6,1.45.9,1,.59,2.11,1.19,3.23,1.77,2.26,1.14,4.63,2.23,7,3.3,4.78,2.12,9.74,4.19,14.57,6.16Z" style="fill:#e9b376"></path><path d="M321.89,251c-6.72,2.59-26.49-10.08-26.49-10.08l8.17-15.12a90.52,90.52,0,0,1,17.58,8.54C329.06,239.55,329.27,248.1,321.89,251Z" style="fill:#407BFF"></path><path d="M321.9,251c-1.9.73-4.84.24-8.07-.83a78.72,78.72,0,0,1-12.74-5.89c-3.34-1.86-5.69-3.36-5.69-3.36l8.18-15.12a90.26,90.26,0,0,1,17.57,8.55C329.06,239.55,329.27,248.1,321.9,251Z" style="fill:#fff;opacity:0.7000000000000001"></path><path d="M313.83,250.12a78.72,78.72,0,0,1-12.74-5.89c4.43-1.53,11.68-.42,11.68-.42C314.71,246.75,314.82,248.8,313.83,250.12Z" style="opacity:0.2"></path><path d="M355.91,241.06A168.37,168.37,0,0,0,348.2,265c-1.4,5.69-2.49,11.16-3.36,16.13-2,11.64-2.86,20.62-3.57,23.6l-39.44-8c-.28-43.16,12.7-63.67,12.7-63.67a78.63,78.63,0,0,1,9.66.07c.68,0,1.37.11,2.07.19A147.78,147.78,0,0,1,343,236.71c1.05.26,2.11.56,3.14.87C351.38,239.14,355.91,241.06,355.91,241.06Z" style="fill:#407BFF"></path><path d="M355.91,241.06A168.37,168.37,0,0,0,348.2,265c-1.4,5.69-2.49,11.16-3.36,16.13-2,11.64-2.86,20.62-3.57,23.6l-39.44-8c-.28-43.16,12.7-63.67,12.7-63.67a78.63,78.63,0,0,1,9.66.07c.68,0,1.37.11,2.07.19A147.78,147.78,0,0,1,343,236.71c1.05.26,2.11.56,3.14.87C351.38,239.14,355.91,241.06,355.91,241.06Z" style="fill:#fff;opacity:0.7000000000000001"></path><path d="M346.16,237.58a130.22,130.22,0,0,0-24.64,21.32c-1.73-9.2-1.32-17.86,1.75-25.83a50.23,50.23,0,0,1-7.73-1.94s-14,22.44-13.71,65.6l39.44,8c.71-3,1.54-12,3.57-23.6.87-5,2-10.44,3.36-16.13a168.37,168.37,0,0,1,7.71-23.92S351.38,239.14,346.16,237.58Z" style="fill:#263238"></path><path d="M355.91,241.06q-1.21,2.9-2.28,5.84A181.69,181.69,0,0,0,348.2,265c-.89,3.6-1.65,7.12-2.31,10.47-.38,1.95-.73,3.83-1.05,5.66-2,11.64-2.86,20.62-3.57,23.6-5.79-1.16-27.56-5.57-39.44-8-.28-43.15,13.72-65.6,13.72-65.6a49.21,49.21,0,0,0,7.72,1.93c-3.06,8-3.47,16.63-1.76,25.84a130.21,130.21,0,0,1,24.65-21.32C351.37,239.14,355.91,241.06,355.91,241.06Z" style="fill:#fff;opacity:0.2"></path><path d="M313.09,205.06l4.61-6.12,3.92,7.54s-4.45,5.21-7,2.81Z" style="fill:#ebb376"></path><polygon points="324.75 196.14 325.92 203.76 321.62 206.48 317.7 198.94 324.75 196.14" style="fill:#ebb376"></polygon><path d="M327.1,241.42c-1.54,2.76-3.67,4.88-6.33,12.33.17,1.69.42,3.41.75,5.14,1.21-1.39,2.49-2.78,3.83-4.14,1.93-7.3,1.58-9.4,3.32-13Z" style="fill:#407BFF"></path><polygon points="326.73 243.81 326.09 239.84 328.99 239.21 330.75 240.83 326.73 243.81" style="fill:#407BFF"></polygon><path d="M345,217.48a.16.16,0,0,1,0,0c-.39.94-.8,2-1.19,3.21,0,0,0,0,0,0-1.78,5.3-3.28,12.39-.77,16a16.93,16.93,0,0,1-13.91,2.52c-4.62-1-4.23-4.33-2.85-5.92a6.94,6.94,0,0,0,5-1.84c1.7-1.76,1.92-4.54,1.77-7.28Z" style="fill:#ebb376"></path><path d="M345,217.48a.16.16,0,0,1,0,0,29.93,29.93,0,0,1-1.19,3.21s0,0,0,0c-1.82,4.16-5.78,10.8-12.55,10.71,1.7-1.76,1.92-4.54,1.77-7.28Z" style="opacity:0.2"></path><path d="M329,239.21s1.3,2.6,2.91,5.24c3.38-1,11.42-3.8,12-7.87a4.1,4.1,0,0,0-1.55-2.28A44.74,44.74,0,0,1,329,239.21Z" style="fill:#fff"></path><path d="M329,239.21a21.68,21.68,0,0,0-4.89,3.58c-1.87-2,.95-9.19,1.95-9.84a5.2,5.2,0,0,1,3.19-.36S325.67,237.6,329,239.21Z" style="fill:#fff"></path><path d="M325.82,203.67c-1.49,2.64-2.24,8.56,2.11,7.51S328.38,199.13,325.82,203.67Z" style="fill:#263238"></path><path d="M345.4,211.82c-1.11,7.37-1.38,11.74-5.47,15.18-6.13,5.17-15,.87-16.11-6.7-1-6.81,1-17.72,8.5-20A10.28,10.28,0,0,1,345.4,211.82Z" style="fill:#ebb376"></path><path d="M350.33,204.2c1.36-4.49-3.87-6.29-7.83-5.48a2.06,2.06,0,0,1-1.31-.13v8.19c.45-.06.88-.13,1.28-.21,0,0-1.84,6.71,1.08,10.28C350.77,214.56,354.61,207.59,350.33,204.2Z" style="fill:#263238"></path><path d="M347.71,218.25a7,7,0,0,1-3.84,3.78c-2.31.9-3.73-1.11-3.32-3.43.38-2.08,2-5.06,4.45-5A3.22,3.22,0,0,1,347.71,218.25Z" style="fill:#ebb376"></path><path d="M334,212.79c-.06.6-.42,1.06-.81,1s-.67-.56-.62-1.16.42-1.06.81-1S334,212.19,334,212.79Z" style="fill:#263238"></path><path d="M327.14,212.12c-.05.6-.41,1.06-.81,1s-.67-.56-.62-1.16.42-1.06.81-1S327.2,211.52,327.14,212.12Z" style="fill:#263238"></path><path d="M329.29,212.63a20.82,20.82,0,0,1-3.38,4.69,3.59,3.59,0,0,0,2.83.77Z" style="fill:#d58745"></path><path d="M333.74,208.54a.35.35,0,0,1,.32.16,2.86,2.86,0,0,0,2.21,1.34.36.36,0,0,1,.36.36.36.36,0,0,1-.35.36,3.58,3.58,0,0,1-2.81-1.67.35.35,0,0,1,.1-.49A.49.49,0,0,1,333.74,208.54Z" style="fill:#263238"></path><path d="M327,207.38a.34.34,0,0,1,.19.09.35.35,0,0,1,.05.5,3.56,3.56,0,0,1-2.95,1.33.37.37,0,0,1-.31-.4.34.34,0,0,1,.39-.31,2.73,2.73,0,0,0,2.32-1.08A.35.35,0,0,1,327,207.38Z" style="fill:#263238"></path><path d="M332.34,223.52a5.77,5.77,0,0,1-.6.09l-2.54-3s.19-.13.51-.31c1.05-.65,3.48-1.94,4.85-1.16a2.49,2.49,0,0,1,.43.32,2.76,2.76,0,0,1,.93,1.67C336,222.06,335.24,223.07,332.34,223.52Z" style="fill:#263238"></path><path d="M335,219.45l-4.93,1.15-.35-.31c1.05-.65,3.48-1.94,4.85-1.16A2.49,2.49,0,0,1,335,219.45Z" style="fill:#fff"></path><path d="M332.34,223.52c0-1.62,2.2-2.23,3.58-2.4C336,222.06,335.24,223.07,332.34,223.52Z" style="fill:#de5753"></path><path d="M350.33,204.2c.61-1.74.74-5.46-3.39-6.55s-7.83-.54-7.74-3.34-3.35-2.89-4.21-.54c0,0-8.14-3.89-7.72,2.89,0,0-4-.1-4.34,3s.7,5.53,3.42,4.87,3.09-.57,3.54,1,3.07,1.34,3.07,1.34-1.68,0-1.61-1.34a3.57,3.57,0,0,0,3.81.81c2.59-.73,3,2,3,2s1.44-.3.63-2.1c0,0,3.28,3.08,6.25,2.44S349.4,206.82,350.33,204.2Z" style="fill:#263238"></path><path d="M286.47,268.68l-7.17-2.59.88,9.6s6.58.84,7.39-2.62Z" style="fill:#ebb376"></path><polygon points="273.37 268.03 274.46 275.94 280.18 275.69 279.3 266.09 273.37 268.03" style="fill:#ebb376"></polygon><path d="M295.74,308.46S246.1,324,234.29,331.11s-44,58.73-44,58.73l11,9.87s37.33-46.55,41.69-49.57,59.32-15.58,59.32-15.58Z" style="fill:#263238"></path><polygon points="186.74 408.88 181.52 402.81 191.78 389.23 196.98 395.31 186.74 408.88" style="fill:#ebb376"></polygon><polygon points="196.98 395.31 191.77 389.24 185.91 397 191.34 402.79 196.98 395.31" style="isolation:isolate;opacity:0.2"></polygon><path d="M180.67,402.1s-.07-.12-.06-.13l-.08-.12h0l.08.11c.08-.09,1.66-1.72,1.51-2.82a.86.86,0,0,0-.45-.66.69.69,0,0,0-.87,0,2.91,2.91,0,0,0-.6,1.91c-.35-.78-.84-1.6-1.38-1.77a.72.72,0,0,0-.66.16,1,1,0,0,0-.46,1,2.07,2.07,0,0,0,.94,1.23,9.37,9.37,0,0,0,1.83,1.08.12.12,0,0,0,.05.05l.06,0Zm.37-3.26c.08-.07.21-.13.44,0l.08,0a.56.56,0,0,1,.21.38c.09.65-.64,1.69-1.12,2.27l-.06-.17A3.81,3.81,0,0,1,181,398.84Zm-3,.89a.69.69,0,0,1,.31-.6.35.35,0,0,1,.32-.08c.54.16,1.18,1.51,1.55,2.55C178.94,400.94,178.14,400.26,178.06,399.73Z" style="fill:#407BFF"></path><path d="M181.71,401.69l7.08,5.53a.57.57,0,0,1,.13.8h0l-4,5.88a1.41,1.41,0,0,1-2,.25c-2.44-2-3.5-3-6.6-5.49-1.91-1.5-5.82-4.28-8.1-6.74s.21-4.66,1.39-3.82c2.82,2,7.88,3.11,10.75,3.11A2.19,2.19,0,0,1,181.71,401.69Z" style="fill:#263238"></path><polygon points="200.5 403.59 186.59 392.8 190.46 386.18 205.49 398.31 200.5 403.59" style="fill:#407BFF"></polygon><polygon points="200.5 403.59 186.59 392.8 190.46 386.18 205.49 398.31 200.5 403.59" style="fill:#fff;opacity:0.2"></polygon><path d="M223.63,390.45s16.62-60.16,19.37-63.61c4.49-5.65,47.5-11.62,47.5-11.62l11.24-19.45,40.62,5.69s-3,28.57-8,35.93S264,343.51,259.59,345s-20.8,48.38-20.8,48.38Z" style="fill:#263238"></path><path d="M220.8,403.89l-.1-.1-.11-.08h0l.12.07c0-.11,1-2.17.48-3.16a.9.9,0,0,0-.64-.48.72.72,0,0,0-.81.33,2.89,2.89,0,0,0,.07,2c-.6-.62-1.33-1.23-1.89-1.21a.74.74,0,0,0-.58.37,1,1,0,0,0-.11,1.06,2.14,2.14,0,0,0,1.3.85,10,10,0,0,0,2.08.41l.06,0s0,0,.06,0A.18.18,0,0,0,220.8,403.89Zm-.73-3.19c.05-.1.16-.2.42-.15l.09,0a.52.52,0,0,1,.32.28,4,4,0,0,1-.3,2.52l-.11-.14A3.75,3.75,0,0,1,220.07,400.7Zm-2.51,1.82a.68.68,0,0,1,.09-.67.33.33,0,0,1,.28-.18c.56,0,1.61,1,2.3,1.89C218.78,403.37,217.8,403,217.56,402.52Z" style="fill:#407BFF"></path><polygon points="228.78 408.28 221.84 404.28 227.37 387.45 234.29 391.46 228.78 408.28" style="fill:#ebb376"></polygon><polygon points="234.29 391.46 227.37 387.46 224.21 397.08 231.26 400.73 234.29 391.46" style="isolation:isolate;opacity:0.2"></polygon><path d="M221.65,403.16l8.51,2.87a.58.58,0,0,1,.39.71h0l-1.86,6.88a1.42,1.42,0,0,1-1.78.89c-2.95-1-4.31-1.7-8-3a74.16,74.16,0,0,1-9.88-3.67c-3-1.57-1.35-4.46,0-4.06,3.31.93,8.46.32,11.16-.63A2.25,2.25,0,0,1,221.65,403.16Z" style="fill:#263238"></path><polygon points="238.14 398.73 221.44 393.15 222.9 385.62 241.09 392.09 238.14 398.73" style="fill:#407BFF"></polygon><polygon points="238.14 398.73 221.44 393.15 222.9 385.62 241.09 392.09 238.14 398.73" style="fill:#fff;opacity:0.2"></polygon><polygon points="329.66 300.83 342.36 302.42 341.88 306.28 328.33 304.68 329.66 300.83" style="fill:#fff;opacity:0.4"></polygon><polygon points="327.72 300.48 326.38 304.37 300.2 300.22 301.83 296.73 327.72 300.48" style="fill:#fff;opacity:0.4"></polygon><path d="M313.93,299.49l-.88,2.57a1.47,1.47,0,0,1-1.58.93l-4.49-.78a1,1,0,0,1-.79-1.34l.88-2.57a1.46,1.46,0,0,1,1.58-.93l4.49.78A1,1,0,0,1,313.93,299.49Z" style="fill:#fff"></path><polygon points="290.5 315.22 305.16 313.56 292.06 312.51 290.5 315.22" style="isolation:isolate;opacity:0.2"></polygon><path d="M353.63,246.9A181.69,181.69,0,0,0,348.2,265c-.89,3.6-1.65,7.12-2.31,10.47-6.91-2-11.34-9.87-11.34-9.87S345.43,244.84,353.63,246.9Z" style="opacity:0.2"></path><path d="M357.29,253.76c-5.11,3.8-10.28,7.44-15.57,11q-4,2.67-8,5.23c-2.75,1.73-5.42,3.38-8.57,5-.15.09-.49.25-.81.39s-.66.29-.92.37a16.68,16.68,0,0,1-1.63.47c-.52.13-1,.22-1.48.3s-.94.14-1.39.2c-1.82.2-3.53.27-5.22.3-3.36,0-6.62-.17-9.84-.43a169.3,169.3,0,0,1-19.08-2.79l.62-5.61c6.23,0,12.54,0,18.7-.18,3.08-.08,6.15-.26,9.1-.54a39.65,39.65,0,0,0,4.2-.6,8.53,8.53,0,0,0,2.81-.92c2.35-1.45,4.95-3.28,7.47-5l7.62-5.45c5.08-3.66,10.2-7.33,15.31-10.94Z" style="fill:#e9b376"></path><path d="M359.68,249.11c.36,7.2-15.32,21.9-15.32,21.9l-13-13.06a105.84,105.84,0,0,1,13.35-13.5C352.56,238,359.25,240.39,359.68,249.11Z" style="fill:#407BFF"></path><path d="M359.68,249.11c.36,7.2-15.32,21.9-15.32,21.9l-13-13.06a105.84,105.84,0,0,1,13.35-13.5C352.56,238,359.25,240.39,359.68,249.11Z" style="fill:#fff;opacity:0.7000000000000001"></path></g><polygon points="187.83 275.88 207.92 276.38 209.91 276.43 204.9 250.99 191.61 250.99 190.01 252.78 193.2 265.41 187.83 275.88" style="fill:#263238"></polygon><polygon points="200.41 259.93 196.15 276.43 207.92 276.38 203.27 252.78 190.01 252.78 193.2 265.41 196.15 259.93 200.41 259.93" style="fill:#fff;isolation:isolate;opacity:0.4"></polygon><polygon points="228.98 276.05 229.72 273.26 260.04 273.26 274.01 274.65 274.54 276.05 228.98 276.05" style="fill:#263238"></polygon><polygon points="260.04 273.26 260.04 276.05 228.98 276.05 229.72 273.26 260.04 273.26" style="isolation:isolate;opacity:0.4"></polygon><path d="M314,414.62h-58.2a1.14,1.14,0,0,1-1.14-1.14v-3.71a1.15,1.15,0,0,1,1.14-1.15H311V289.81H256.78a2.09,2.09,0,0,1-2.09-2.09v-3.91H314a3,3,0,0,1,3,3V411.62A3,3,0,0,1,314,414.62Z" style="fill:#263238"></path><g style="isolation:isolate;opacity:0.4"><path d="M314,414.62h-58.2a1.14,1.14,0,0,1-1.14-1.14v-3.71a1.15,1.15,0,0,1,1.14-1.15H311V289.81H256.78a2.09,2.09,0,0,1-2.09-2.09v-3.91H314a3,3,0,0,1,3,3V411.62A3,3,0,0,1,314,414.62Z" style="fill:#fff"></path></g><path d="M166.12,278.13h157.3a0,0,0,0,1,0,0v4.72a1.94,1.94,0,0,1-1.94,1.94H168.07a1.94,1.94,0,0,1-1.94-1.94v-4.73a0,0,0,0,1,0,0Z" style="fill:#407BFF"></path><path d="M166.12,278.13h157.3a0,0,0,0,1,0,0v4.72a1.94,1.94,0,0,1-1.94,1.94H168.07a1.94,1.94,0,0,1-1.94-1.94v-4.73a0,0,0,0,1,0,0Z" style="fill:#fff;isolation:isolate;opacity:0.4"></path><rect x="166.12" y="278.13" width="157.3" height="3.33" style="isolation:isolate;opacity:0.2"></rect><path d="M326.73,279H162.83a1.88,1.88,0,0,1-1.88-1.88h0a1.88,1.88,0,0,1,1.88-1.88h163.9a1.88,1.88,0,0,1,1.88,1.88h0A1.88,1.88,0,0,1,326.73,279Z" style="fill:#407BFF"></path><path d="M326.73,279H162.83a1.88,1.88,0,0,1-1.88-1.88h0a1.88,1.88,0,0,1,1.88-1.88h163.9a1.88,1.88,0,0,1,1.88,1.88h0A1.88,1.88,0,0,1,326.73,279Z" style="fill:#fff;isolation:isolate;opacity:0.4"></path><path d="M192.57,257.72a.35.35,0,0,1-.25-.1.38.38,0,0,1,0-.53s.24-.26.71-.72a.37.37,0,0,1,.53,0,.39.39,0,0,1,0,.53l-.69.7A.36.36,0,0,1,192.57,257.72Z" style="fill:#407BFF"></path><path d="M194.79,255.57a.39.39,0,0,1-.28-.12.37.37,0,0,1,0-.53c.46-.42,1-.89,1.58-1.39a.36.36,0,0,1,.52,0,.37.37,0,0,1,0,.53q-.87.75-1.56,1.38A.38.38,0,0,1,194.79,255.57Z" style="fill:#407BFF"></path><path d="M198,252.85a.38.38,0,0,1-.29-.14.38.38,0,0,1,.06-.53c.52-.42,1.07-.85,1.66-1.3a.38.38,0,0,1,.45.6c-.58.44-1.13.87-1.64,1.28A.36.36,0,0,1,198,252.85Zm3.34-2.54a.4.4,0,0,1-.31-.16.37.37,0,0,1,.09-.52c.55-.4,1.12-.8,1.72-1.21a.37.37,0,1,1,.42.62c-.59.4-1.16.8-1.7,1.2A.47.47,0,0,1,201.31,250.31Zm3.46-2.36a.39.39,0,0,1-.32-.17.38.38,0,0,1,.11-.52c.58-.37,1.18-.75,1.79-1.12a.37.37,0,0,1,.39.64q-.92.56-1.77,1.11A.36.36,0,0,1,204.77,248Zm3.58-2.18a.37.37,0,0,1-.33-.19.37.37,0,0,1,.14-.51l1.84-1a.38.38,0,1,1,.36.66l-1.83,1A.29.29,0,0,1,208.35,245.77Zm3.69-2a.39.39,0,0,1-.34-.21.38.38,0,0,1,.17-.5c.62-.31,1.25-.62,1.89-.92a.38.38,0,0,1,.5.18.37.37,0,0,1-.18.5c-.63.3-1.26.6-1.87.91A.35.35,0,0,1,212,243.79Zm3.79-1.78a.37.37,0,0,1-.34-.22.39.39,0,0,1,.19-.5l1.95-.81a.38.38,0,0,1,.28.7c-.66.26-1.3.53-1.93.8A.4.4,0,0,1,215.83,242Z" style="fill:#407BFF"></path><path d="M219.73,240.45a.38.38,0,0,1-.13-.73l1-.34a.37.37,0,0,1,.24.71l-.93.34Z" style="fill:#407BFF"></path><path d="M184.82,299.79a.28.28,0,0,1-.13,0,.38.38,0,0,1-.23-.48s.12-.33.36-.94a.38.38,0,0,1,.49-.21.38.38,0,0,1,.21.49c-.23.59-.35.92-.35.92A.39.39,0,0,1,184.82,299.79Z" style="fill:#407BFF"></path><path d="M185.86,297.12a.35.35,0,0,1-.14,0,.37.37,0,0,1-.2-.49c.21-.51.45-1.09.72-1.72a.37.37,0,0,1,.49-.2.37.37,0,0,1,.2.49c-.27.63-.51,1.21-.72,1.72A.38.38,0,0,1,185.86,297.12Z" style="fill:#407BFF"></path><path d="M187.33,293.68a.4.4,0,0,1-.15,0,.38.38,0,0,1-.19-.5q.36-.81.78-1.71a.37.37,0,0,1,.49-.18.39.39,0,0,1,.19.5c-.28.59-.53,1.16-.77,1.7A.38.38,0,0,1,187.33,293.68Zm1.57-3.4a.45.45,0,0,1-.16,0,.38.38,0,0,1-.18-.5c.26-.55.53-1.12.82-1.69a.37.37,0,0,1,.5-.18.38.38,0,0,1,.17.51q-.42.86-.81,1.68A.39.39,0,0,1,188.9,290.28Zm1.65-3.36a.35.35,0,0,1-.17,0,.37.37,0,0,1-.16-.5c.28-.55.56-1.1.86-1.67a.39.39,0,0,1,.51-.16.38.38,0,0,1,.15.51c-.29.56-.58,1.11-.85,1.66A.38.38,0,0,1,190.55,286.92Zm1.74-3.31a.41.41,0,0,1-.18-.05.38.38,0,0,1-.15-.51c.29-.54.6-1.09.91-1.64a.37.37,0,0,1,.65.37c-.31.55-.61,1.09-.9,1.63A.38.38,0,0,1,192.29,283.61Zm1.83-3.27a.32.32,0,0,1-.19,0,.37.37,0,0,1-.14-.51c.31-.54.63-1.08,1-1.62a.38.38,0,0,1,.65.38l-.95,1.61A.37.37,0,0,1,194.12,280.34Zm1.92-3.21a.36.36,0,0,1-.2-.06.36.36,0,0,1-.12-.51c.32-.53.66-1.06,1-1.59a.38.38,0,0,1,.64.4l-1,1.58A.38.38,0,0,1,196,277.13Zm2-3.16a.42.42,0,0,1-.21-.06.37.37,0,0,1-.1-.52q.51-.78,1-1.56a.37.37,0,1,1,.61.43c-.35.51-.7,1-1,1.55A.38.38,0,0,1,198.05,274Zm2.12-3.08a.44.44,0,0,1-.22-.07.38.38,0,0,1-.09-.53l1.1-1.52a.38.38,0,0,1,.61.45l-1.1,1.51A.38.38,0,0,1,200.17,270.89Zm2.22-3a.34.34,0,0,1-.23-.08.38.38,0,0,1-.07-.52c.38-.5.77-1,1.16-1.48a.38.38,0,0,1,.53-.05.37.37,0,0,1,.06.52c-.39.49-.78,1-1.15,1.47A.41.41,0,0,1,202.39,267.88Zm2.34-2.91a.36.36,0,0,1-.24-.09.38.38,0,0,1-.05-.53c.4-.48.81-1,1.23-1.43a.38.38,0,1,1,.56.5L205,264.83A.38.38,0,0,1,204.73,265Zm2.47-2.81a.44.44,0,0,1-.26-.1.38.38,0,0,1,0-.53c.43-.47.86-.92,1.29-1.37a.38.38,0,0,1,.53,0,.37.37,0,0,1,0,.53L207.47,262A.37.37,0,0,1,207.2,262.16Zm2.61-2.69a.36.36,0,0,1-.27-.12.38.38,0,0,1,0-.53c.45-.43.91-.87,1.37-1.29a.38.38,0,0,1,.51.55c-.46.42-.91.85-1.35,1.28A.4.4,0,0,1,209.81,259.47Z" style="fill:#407BFF"></path><path d="M212.56,256.93a.37.37,0,0,1-.29-.13.37.37,0,0,1,0-.52c.25-.23.51-.44.77-.66a.38.38,0,0,1,.48.58l-.76.64A.38.38,0,0,1,212.56,256.93Z" style="fill:#407BFF"></path><path d="M165.58,321.42h-.07a.37.37,0,0,1-.3-.43s.06-.34.21-1a.38.38,0,0,1,.45-.29.37.37,0,0,1,.28.45c-.14.63-.2,1-.2,1A.38.38,0,0,1,165.58,321.42Z" style="fill:#407BFF"></path><path d="M166.26,318.58h-.1a.38.38,0,0,1-.27-.46c.15-.55.33-1.17.53-1.87a.38.38,0,0,1,.47-.25.37.37,0,0,1,.25.46c-.2.69-.38,1.31-.52,1.85A.38.38,0,0,1,166.26,318.58Z" style="fill:#407BFF"></path><path d="M167.35,314.88l-.11,0a.38.38,0,0,1-.25-.47c.19-.58.39-1.19.61-1.84a.37.37,0,0,1,.48-.23.36.36,0,0,1,.23.47q-.33,1-.6,1.83A.38.38,0,0,1,167.35,314.88Zm1.25-3.65a.28.28,0,0,1-.13,0,.37.37,0,0,1-.23-.48c.21-.58.44-1.18.68-1.81a.37.37,0,0,1,.48-.22.39.39,0,0,1,.22.49c-.24.62-.46,1.22-.67,1.8A.39.39,0,0,1,168.6,311.23Zm1.37-3.61a.32.32,0,0,1-.14,0,.37.37,0,0,1-.21-.48c.23-.58.47-1.18.73-1.79a.36.36,0,0,1,.49-.2.37.37,0,0,1,.2.49c-.25.6-.49,1.2-.72,1.77A.38.38,0,0,1,170,307.62Zm1.48-3.56a.4.4,0,0,1-.15,0,.37.37,0,0,1-.2-.49c.25-.58.51-1.17.79-1.77a.36.36,0,0,1,.49-.19.37.37,0,0,1,.19.49l-.78,1.76A.38.38,0,0,1,171.45,304.06Zm1.58-3.52a.45.45,0,0,1-.16,0,.37.37,0,0,1-.18-.5c.27-.57.54-1.16.83-1.75a.38.38,0,0,1,.5-.17.37.37,0,0,1,.17.5l-.82,1.74A.38.38,0,0,1,173,300.54Zm1.67-3.47a.32.32,0,0,1-.16,0,.37.37,0,0,1-.17-.5c.28-.57.57-1.15.87-1.73a.39.39,0,0,1,.51-.16.38.38,0,0,1,.16.5c-.3.58-.59,1.15-.87,1.72A.39.39,0,0,1,174.7,297.07Zm1.77-3.43a.41.41,0,0,1-.18-.05.38.38,0,0,1-.16-.5l.92-1.71a.38.38,0,1,1,.66.36c-.31.57-.62,1.14-.91,1.7A.4.4,0,0,1,176.47,293.64Zm1.84-3.39a.37.37,0,0,1-.18-.05.38.38,0,0,1-.15-.51l1-1.68a.39.39,0,0,1,.52-.14.36.36,0,0,1,.13.51l-.94,1.68A.39.39,0,0,1,178.31,290.25Zm1.92-3.35a.34.34,0,0,1-.19,0,.36.36,0,0,1-.13-.51c.32-.55.65-1.1,1-1.66a.37.37,0,1,1,.64.39c-.34.55-.66,1.1-1,1.65A.36.36,0,0,1,180.23,286.9Zm2-3.3a.34.34,0,0,1-.19-.05.37.37,0,0,1-.12-.52c.33-.54.67-1.09,1-1.64a.38.38,0,0,1,.64.41c-.35.54-.69,1.09-1,1.63A.37.37,0,0,1,182.22,283.6Zm2.07-3.25a.36.36,0,0,1-.2-.06.37.37,0,0,1-.11-.52c.34-.54.7-1.08,1.06-1.62a.37.37,0,0,1,.52-.1.38.38,0,0,1,.1.52l-1.06,1.61A.37.37,0,0,1,184.29,280.35Zm2.13-3.22a.42.42,0,0,1-.21-.06.38.38,0,0,1-.1-.52l1.09-1.6a.39.39,0,0,1,.53-.09.37.37,0,0,1,.09.52L186.73,277A.36.36,0,0,1,186.42,277.13Zm2.2-3.17a.43.43,0,0,1-.22-.06.38.38,0,0,1-.09-.53l1.13-1.57a.37.37,0,0,1,.52-.08.36.36,0,0,1,.08.52c-.37.52-.75,1.05-1.11,1.57A.39.39,0,0,1,188.62,274Zm2.26-3.12a.34.34,0,0,1-.22-.07.37.37,0,0,1-.08-.53l1.15-1.55a.38.38,0,0,1,.53-.07.37.37,0,0,1,.07.52l-1.15,1.55A.37.37,0,0,1,190.88,270.84Zm2.32-3.08a.4.4,0,0,1-.23-.08.38.38,0,0,1-.07-.53l1.18-1.52a.37.37,0,0,1,.53-.07.38.38,0,0,1,.06.53c-.39.51-.79,1-1.17,1.52A.38.38,0,0,1,193.2,267.76Zm2.37-3a.4.4,0,0,1-.23-.08.38.38,0,0,1-.06-.53l1.21-1.5a.37.37,0,0,1,.53-.06.38.38,0,0,1,0,.53c-.4.5-.81,1-1.2,1.5A.41.41,0,0,1,195.57,264.72Z" style="fill:#407BFF"></path><path d="M198,261.72a.38.38,0,0,1-.24-.09.37.37,0,0,1-.05-.52l.64-.78a.38.38,0,1,1,.58.48l-.64.77A.37.37,0,0,1,198,261.72Z" style="fill:#407BFF"></path><g style="opacity:0.5"><path d="M192.57,257.72a.35.35,0,0,1-.25-.1.38.38,0,0,1,0-.53s.24-.26.71-.72a.37.37,0,0,1,.53,0,.39.39,0,0,1,0,.53l-.69.7A.36.36,0,0,1,192.57,257.72Z" style="fill:#fff"></path><path d="M194.79,255.57a.39.39,0,0,1-.28-.12.37.37,0,0,1,0-.53c.46-.42,1-.89,1.58-1.39a.36.36,0,0,1,.52,0,.37.37,0,0,1,0,.53q-.87.75-1.56,1.38A.38.38,0,0,1,194.79,255.57Z" style="fill:#fff"></path><path d="M198,252.85a.38.38,0,0,1-.29-.14.38.38,0,0,1,.06-.53c.52-.42,1.07-.85,1.66-1.3a.38.38,0,0,1,.45.6c-.58.44-1.13.87-1.64,1.28A.36.36,0,0,1,198,252.85Zm3.34-2.54a.4.4,0,0,1-.31-.16.37.37,0,0,1,.09-.52c.55-.4,1.12-.8,1.72-1.21a.37.37,0,1,1,.42.62c-.59.4-1.16.8-1.7,1.2A.47.47,0,0,1,201.31,250.31Zm3.46-2.36a.39.39,0,0,1-.32-.17.38.38,0,0,1,.11-.52c.58-.37,1.18-.75,1.79-1.12a.37.37,0,0,1,.39.64q-.92.56-1.77,1.11A.36.36,0,0,1,204.77,248Zm3.58-2.18a.37.37,0,0,1-.33-.19.37.37,0,0,1,.14-.51l1.84-1a.38.38,0,1,1,.36.66l-1.83,1A.29.29,0,0,1,208.35,245.77Zm3.69-2a.39.39,0,0,1-.34-.21.38.38,0,0,1,.17-.5c.62-.31,1.25-.62,1.89-.92a.38.38,0,0,1,.5.18.37.37,0,0,1-.18.5c-.63.3-1.26.6-1.87.91A.35.35,0,0,1,212,243.79Zm3.79-1.78a.37.37,0,0,1-.34-.22.39.39,0,0,1,.19-.5l1.95-.81a.38.38,0,0,1,.28.7c-.66.26-1.3.53-1.93.8A.4.4,0,0,1,215.83,242Z" style="fill:#fff"></path><path d="M219.73,240.45a.38.38,0,0,1-.13-.73l1-.34a.37.37,0,0,1,.24.71l-.93.34Z" style="fill:#fff"></path></g><g style="opacity:0.5"><path d="M184.82,299.79a.28.28,0,0,1-.13,0,.38.38,0,0,1-.23-.48s.12-.33.36-.94a.38.38,0,0,1,.49-.21.38.38,0,0,1,.21.49c-.23.59-.35.92-.35.92A.39.39,0,0,1,184.82,299.79Z" style="fill:#fff"></path><path d="M185.86,297.12a.35.35,0,0,1-.14,0,.37.37,0,0,1-.2-.49c.21-.51.45-1.09.72-1.72a.37.37,0,0,1,.49-.2.37.37,0,0,1,.2.49c-.27.63-.51,1.21-.72,1.72A.38.38,0,0,1,185.86,297.12Z" style="fill:#fff"></path><path d="M187.33,293.68a.4.4,0,0,1-.15,0,.38.38,0,0,1-.19-.5q.36-.81.78-1.71a.37.37,0,0,1,.49-.18.39.39,0,0,1,.19.5c-.28.59-.53,1.16-.77,1.7A.38.38,0,0,1,187.33,293.68Zm1.57-3.4a.45.45,0,0,1-.16,0,.38.38,0,0,1-.18-.5c.26-.55.53-1.12.82-1.69a.37.37,0,0,1,.5-.18.38.38,0,0,1,.17.51q-.42.86-.81,1.68A.39.39,0,0,1,188.9,290.28Zm1.65-3.36a.35.35,0,0,1-.17,0,.37.37,0,0,1-.16-.5c.28-.55.56-1.1.86-1.67a.39.39,0,0,1,.51-.16.38.38,0,0,1,.15.51c-.29.56-.58,1.11-.85,1.66A.38.38,0,0,1,190.55,286.92Zm1.74-3.31a.41.41,0,0,1-.18-.05.38.38,0,0,1-.15-.51c.29-.54.6-1.09.91-1.64a.37.37,0,0,1,.65.37c-.31.55-.61,1.09-.9,1.63A.38.38,0,0,1,192.29,283.61Zm1.83-3.27a.32.32,0,0,1-.19,0,.37.37,0,0,1-.14-.51c.31-.54.63-1.08,1-1.62a.38.38,0,0,1,.65.38l-.95,1.61A.37.37,0,0,1,194.12,280.34Zm1.92-3.21a.36.36,0,0,1-.2-.06.36.36,0,0,1-.12-.51c.32-.53.66-1.06,1-1.59a.38.38,0,0,1,.64.4l-1,1.58A.38.38,0,0,1,196,277.13Zm2-3.16a.42.42,0,0,1-.21-.06.37.37,0,0,1-.1-.52q.51-.78,1-1.56a.37.37,0,1,1,.61.43c-.35.51-.7,1-1,1.55A.38.38,0,0,1,198.05,274Zm2.12-3.08a.44.44,0,0,1-.22-.07.38.38,0,0,1-.09-.53l1.1-1.52a.38.38,0,0,1,.61.45l-1.1,1.51A.38.38,0,0,1,200.17,270.89Zm2.22-3a.34.34,0,0,1-.23-.08.38.38,0,0,1-.07-.52c.38-.5.77-1,1.16-1.48a.38.38,0,0,1,.53-.05.37.37,0,0,1,.06.52c-.39.49-.78,1-1.15,1.47A.41.41,0,0,1,202.39,267.88Zm2.34-2.91a.36.36,0,0,1-.24-.09.38.38,0,0,1-.05-.53c.4-.48.81-1,1.23-1.43a.38.38,0,1,1,.56.5L205,264.83A.38.38,0,0,1,204.73,265Zm2.47-2.81a.44.44,0,0,1-.26-.1.38.38,0,0,1,0-.53c.43-.47.86-.92,1.29-1.37a.38.38,0,0,1,.53,0,.37.37,0,0,1,0,.53L207.47,262A.37.37,0,0,1,207.2,262.16Zm2.61-2.69a.36.36,0,0,1-.27-.12.38.38,0,0,1,0-.53c.45-.43.91-.87,1.37-1.29a.38.38,0,0,1,.51.55c-.46.42-.91.85-1.35,1.28A.4.4,0,0,1,209.81,259.47Z" style="fill:#fff"></path><path d="M212.56,256.93a.37.37,0,0,1-.29-.13.37.37,0,0,1,0-.52c.25-.23.51-.44.77-.66a.38.38,0,0,1,.48.58l-.76.64A.38.38,0,0,1,212.56,256.93Z" style="fill:#fff"></path></g><g style="opacity:0.5"><path d="M165.58,321.42h-.07a.37.37,0,0,1-.3-.43s.06-.34.21-1a.38.38,0,0,1,.45-.29.37.37,0,0,1,.28.45c-.14.63-.2,1-.2,1A.38.38,0,0,1,165.58,321.42Z" style="fill:#fff"></path><path d="M166.26,318.58h-.1a.38.38,0,0,1-.27-.46c.15-.55.33-1.17.53-1.87a.38.38,0,0,1,.47-.25.37.37,0,0,1,.25.46c-.2.69-.38,1.31-.52,1.85A.38.38,0,0,1,166.26,318.58Z" style="fill:#fff"></path><path d="M167.35,314.88l-.11,0a.38.38,0,0,1-.25-.47c.19-.58.39-1.19.61-1.84a.37.37,0,0,1,.48-.23.36.36,0,0,1,.23.47q-.33,1-.6,1.83A.38.38,0,0,1,167.35,314.88Zm1.25-3.65a.28.28,0,0,1-.13,0,.37.37,0,0,1-.23-.48c.21-.58.44-1.18.68-1.81a.37.37,0,0,1,.48-.22.39.39,0,0,1,.22.49c-.24.62-.46,1.22-.67,1.8A.39.39,0,0,1,168.6,311.23Zm1.37-3.61a.32.32,0,0,1-.14,0,.37.37,0,0,1-.21-.48c.23-.58.47-1.18.73-1.79a.36.36,0,0,1,.49-.2.37.37,0,0,1,.2.49c-.25.6-.49,1.2-.72,1.77A.38.38,0,0,1,170,307.62Zm1.48-3.56a.4.4,0,0,1-.15,0,.37.37,0,0,1-.2-.49c.25-.58.51-1.17.79-1.77a.36.36,0,0,1,.49-.19.37.37,0,0,1,.19.49l-.78,1.76A.38.38,0,0,1,171.45,304.06Zm1.58-3.52a.45.45,0,0,1-.16,0,.37.37,0,0,1-.18-.5c.27-.57.54-1.16.83-1.75a.38.38,0,0,1,.5-.17.37.37,0,0,1,.17.5l-.82,1.74A.38.38,0,0,1,173,300.54Zm1.67-3.47a.32.32,0,0,1-.16,0,.37.37,0,0,1-.17-.5c.28-.57.57-1.15.87-1.73a.39.39,0,0,1,.51-.16.38.38,0,0,1,.16.5c-.3.58-.59,1.15-.87,1.72A.39.39,0,0,1,174.7,297.07Zm1.77-3.43a.41.41,0,0,1-.18-.05.38.38,0,0,1-.16-.5l.92-1.71a.38.38,0,1,1,.66.36c-.31.57-.62,1.14-.91,1.7A.4.4,0,0,1,176.47,293.64Zm1.84-3.39a.37.37,0,0,1-.18-.05.38.38,0,0,1-.15-.51l1-1.68a.39.39,0,0,1,.52-.14.36.36,0,0,1,.13.51l-.94,1.68A.39.39,0,0,1,178.31,290.25Zm1.92-3.35a.34.34,0,0,1-.19,0,.36.36,0,0,1-.13-.51c.32-.55.65-1.1,1-1.66a.37.37,0,1,1,.64.39c-.34.55-.66,1.1-1,1.65A.36.36,0,0,1,180.23,286.9Zm2-3.3a.34.34,0,0,1-.19-.05.37.37,0,0,1-.12-.52c.33-.54.67-1.09,1-1.64a.38.38,0,0,1,.64.41c-.35.54-.69,1.09-1,1.63A.37.37,0,0,1,182.22,283.6Zm2.07-3.25a.36.36,0,0,1-.2-.06.37.37,0,0,1-.11-.52c.34-.54.7-1.08,1.06-1.62a.37.37,0,0,1,.52-.1.38.38,0,0,1,.1.52l-1.06,1.61A.37.37,0,0,1,184.29,280.35Zm2.13-3.22a.42.42,0,0,1-.21-.06.38.38,0,0,1-.1-.52l1.09-1.6a.39.39,0,0,1,.53-.09.37.37,0,0,1,.09.52L186.73,277A.36.36,0,0,1,186.42,277.13Zm2.2-3.17a.43.43,0,0,1-.22-.06.38.38,0,0,1-.09-.53l1.13-1.57a.37.37,0,0,1,.52-.08.36.36,0,0,1,.08.52c-.37.52-.75,1.05-1.11,1.57A.39.39,0,0,1,188.62,274Zm2.26-3.12a.34.34,0,0,1-.22-.07.37.37,0,0,1-.08-.53l1.15-1.55a.38.38,0,0,1,.53-.07.37.37,0,0,1,.07.52l-1.15,1.55A.37.37,0,0,1,190.88,270.84Zm2.32-3.08a.4.4,0,0,1-.23-.08.38.38,0,0,1-.07-.53l1.18-1.52a.37.37,0,0,1,.53-.07.38.38,0,0,1,.06.53c-.39.51-.79,1-1.17,1.52A.38.38,0,0,1,193.2,267.76Zm2.37-3a.4.4,0,0,1-.23-.08.38.38,0,0,1-.06-.53l1.21-1.5a.37.37,0,0,1,.53-.06.38.38,0,0,1,0,.53c-.4.5-.81,1-1.2,1.5A.41.41,0,0,1,195.57,264.72Z" style="fill:#fff"></path><path d="M198,261.72a.38.38,0,0,1-.24-.09.37.37,0,0,1-.05-.52l.64-.78a.38.38,0,1,1,.58.48l-.64.77A.37.37,0,0,1,198,261.72Z" style="fill:#fff"></path></g><path d="M218.39,247.16a5.55,5.55,0,1,1-1.13-7.76A5.54,5.54,0,0,1,218.39,247.16Z" style="fill:#407BFF"></path><g style="opacity:0.30000000000000004"><path d="M217.73,246.67a4.72,4.72,0,1,1-1-6.61A4.72,4.72,0,0,1,217.73,246.67Z" style="fill:#fff"></path></g><path d="M214.77,244.46h0a1.29,1.29,0,0,0,1.86-1.72,1.34,1.34,0,0,0-.3-.33h0l-.4-.31a.18.18,0,0,1,0-.25l.31-.42-.38-.28-.32.42a.17.17,0,0,1-.25,0,.24.24,0,0,1-.07-.12.22.22,0,0,1,0-.13l.31-.42-.38-.29-.32.42a.18.18,0,0,1-.25,0l-.94-.7-.29.38.34.39a.3.3,0,0,1,0,.38l-2,2.7a.31.31,0,0,1-.36.1l-.49-.2-.29.38.95.71a.19.19,0,0,1,0,.25l-.31.42.38.29.32-.43a.18.18,0,0,1,.32.09.22.22,0,0,1,0,.13l-.31.42.39.29.31-.42a.18.18,0,0,1,.25,0l.4.3h0a1.29,1.29,0,0,0,1.53-2.08Zm-.17-2.54.85.63a.83.83,0,0,1,.33.75.79.79,0,0,1-.16.44.84.84,0,0,1-1.16.19l0,0-.85-.63Zm-1.46,3.71-.84-.63,1-1.36.84.63a.85.85,0,0,1,.18,1.19A.86.86,0,0,1,213.14,245.63Z" style="fill:#407BFF"></path><path d="M190.72,259.1a5.55,5.55,0,1,1-7.69-1.56A5.54,5.54,0,0,1,190.72,259.1Z" style="fill:#407BFF"></path><g style="opacity:0.30000000000000004"><path d="M190,259.56a4.72,4.72,0,1,1-6.54-1.33A4.71,4.71,0,0,1,190,259.56Z" style="fill:#fff"></path></g><path d="M187,261.6h0a1.3,1.3,0,0,0,.35-1.78,1.27,1.27,0,0,0-1.34-.55,1.1,1.1,0,0,0-.42.17h0l-.42.28a.18.18,0,0,1-.25,0l-.29-.44-.4.27.29.44a.19.19,0,0,1,0,.25.2.2,0,0,1-.13,0,.19.19,0,0,1-.12-.07l-.29-.44-.4.26.29.44a.18.18,0,0,1-.05.25l-1,.65.26.4.49-.19a.3.3,0,0,1,.36.12l1.86,2.81a.3.3,0,0,1,0,.37l-.36.39.27.4,1-.65a.19.19,0,0,1,.25.05l.29.44.4-.27-.29-.43a.19.19,0,0,1,.05-.25.16.16,0,0,1,.13,0,.2.2,0,0,1,.12.08l.29.44.4-.27-.29-.44a.19.19,0,0,1,0-.25l.42-.27h0A1.29,1.29,0,0,0,187,261.6Zm-2.46-.7.88-.58a.85.85,0,0,1,.83-.07.92.92,0,0,1,.35.3.85.85,0,0,1-.2,1.16l0,0-.87.58Zm3,2.62-.88.59-.94-1.42.88-.59a.85.85,0,1,1,.94,1.42Z" style="fill:#407BFF"></path><circle cx="184.82" cy="301.11" r="5.55" transform="translate(-163.56 359.92) rotate(-68.04)" style="fill:#407BFF"></circle><g style="opacity:0.30000000000000004"><path d="M188.08,304.52a4.72,4.72,0,1,1,.15-6.67A4.71,4.71,0,0,1,188.08,304.52Z" style="fill:#fff"></path></g><path d="M185.53,301.86h0a1.29,1.29,0,0,0,2.12-1.39,1.52,1.52,0,0,0-.24-.38h0l-.35-.36a.18.18,0,0,1,0-.26l.38-.36-.34-.35-.38.37a.18.18,0,0,1-.25,0,.21.21,0,0,1,0-.13.16.16,0,0,1,.06-.12l.37-.37-.33-.34-.38.36a.17.17,0,0,1-.25,0l-.81-.85-.35.34.27.44a.3.3,0,0,1,0,.37l-2.44,2.34a.29.29,0,0,1-.36,0l-.45-.28-.35.33.81.85a.19.19,0,0,1,0,.26l-.38.36.33.35.38-.37a.18.18,0,0,1,.25,0,.17.17,0,0,1,.05.13.18.18,0,0,1-.05.12l-.38.37.33.34.38-.36a.17.17,0,0,1,.25,0l.35.36h0a1.29,1.29,0,0,0,1.85-1.8Zm.25-2.54.73.76a.88.88,0,0,1,.21.81.91.91,0,0,1-.23.4.86.86,0,0,1-1.18,0l0,0-.73-.76Zm-2.05,3.43L183,302l1.23-1.17.73.76a.84.84,0,0,1,0,1.2A.85.85,0,0,1,183.73,302.75Z" style="fill:#407BFF"></path><circle cx="221.78" cy="253.14" r="5.55" style="fill:#407BFF"></circle><g style="opacity:0.30000000000000004"><path d="M226.5,253.14a4.72,4.72,0,1,1-4.72-4.72A4.73,4.73,0,0,1,226.5,253.14Z" style="fill:#fff"></path></g><path d="M222.81,253.14h0a1.29,1.29,0,0,0,.46-2.48,1.12,1.12,0,0,0-.44-.09h-.5a.17.17,0,0,1-.18-.17v-.53h-.48v.53a.17.17,0,0,1-.18.17.19.19,0,0,1-.13-.05.17.17,0,0,1-.05-.12v-.53h-.48v.53a.17.17,0,0,1-.18.17h-1.18V251l.51.11a.3.3,0,0,1,.23.29v3.37a.29.29,0,0,1-.22.29l-.52.13v.49h1.18a.18.18,0,0,1,.18.17v.53h.48v-.53a.18.18,0,0,1,.18-.17.17.17,0,0,1,.12.05.16.16,0,0,1,.06.12v.53h.48v-.53a.18.18,0,0,1,.18-.17h.5a1.29,1.29,0,0,0,0-2.58Zm-1.66-1.94h1a.86.86,0,0,1,.73.4.87.87,0,0,1,.13.45.85.85,0,0,1-.82.85h-1.09Zm1,3.85h-1v-1.71h1a.86.86,0,1,1,0,1.71Z" style="fill:#407BFF"></path><path d="M170,321.27a5.55,5.55,0,1,1-6.53-4.35A5.55,5.55,0,0,1,170,321.27Z" style="fill:#407BFF"></path><g style="opacity:0.30000000000000004"><path d="M169.17,321.43a4.72,4.72,0,1,1-5.56-3.7A4.73,4.73,0,0,1,169.17,321.43Z" style="fill:#fff"></path></g><path d="M165.55,322.16h0a1.29,1.29,0,0,0,0-2.53,1.36,1.36,0,0,0-.45,0h0l-.49.1a.17.17,0,0,1-.21-.14l-.1-.51-.47.09.1.51a.18.18,0,0,1-.14.21.22.22,0,0,1-.14,0,.24.24,0,0,1-.07-.12l-.1-.51-.48.09.11.52a.18.18,0,0,1-.14.21l-1.16.23.1.47h.51a.3.3,0,0,1,.29.24l.66,3.31a.3.3,0,0,1-.16.33l-.48.23.09.47,1.16-.23a.18.18,0,0,1,.21.14l.1.52.47-.1-.1-.51a.17.17,0,0,1,.14-.21.19.19,0,0,1,.13,0,.2.2,0,0,1,.08.12l.1.51.47-.09-.1-.52a.18.18,0,0,1,.14-.21l.5-.1h0a1.29,1.29,0,0,0-.53-2.52Zm-2-1.58,1-.21A.86.86,0,0,1,165,322h0l-1,.2Zm1.79,3.57-1,.21-.34-1.68,1-.2a.85.85,0,1,1,.33,1.67Z" style="fill:#407BFF"></path><path d="M175.05,352.32a5.55,5.55,0,1,1-1.49-7.7A5.54,5.54,0,0,1,175.05,352.32Z" style="fill:#407BFF"></path><g style="opacity:0.30000000000000004"><path d="M174.36,351.86a4.72,4.72,0,1,1-1.27-6.56A4.72,4.72,0,0,1,174.36,351.86Z" style="fill:#fff"></path></g><path d="M171.31,349.79h0a1.28,1.28,0,0,0,1.77-1.8,1.34,1.34,0,0,0-.31-.32h0l-.42-.29a.18.18,0,0,1,0-.24l.3-.44-.4-.27-.3.44a.16.16,0,0,1-.24,0,.15.15,0,0,1-.08-.11.15.15,0,0,1,0-.13l.29-.44-.4-.27-.29.44a.18.18,0,0,1-.25,0l-1-.65-.26.39.35.38a.29.29,0,0,1,0,.37l-1.88,2.8a.3.3,0,0,1-.35.11l-.5-.18-.27.4,1,.66a.19.19,0,0,1,.05.25l-.29.43.39.27.3-.43a.19.19,0,0,1,.25-.05.19.19,0,0,1,.07.11.17.17,0,0,1,0,.14l-.29.43.4.27.29-.43a.18.18,0,0,1,.25,0l.42.28h0a1.29,1.29,0,0,0,1.43-2.15Zm-.29-2.53.87.59a.86.86,0,0,1,.38.74.89.89,0,0,1-.15.44.85.85,0,0,1-1.15.25l0,0-.88-.59ZM169.74,351l-.88-.59,1-1.41.87.59a.85.85,0,0,1-.95,1.41Z" style="fill:#407BFF"></path><path d="M270.8,259.9a2.39,2.39,0,0,1-2.41,2.67H221.93A3,3,0,0,1,219,259.9l-2.76-29.74a2.78,2.78,0,0,1,.06-.87,2.38,2.38,0,0,1,2.35-1.8h46.46a3,3,0,0,1,2.91,2.67Z" style="fill:#263238"></path><path d="M268.22,262.57H221.93A3,3,0,0,1,219,259.9l-2.76-29.74a2.78,2.78,0,0,1,.06-.87h46.3a3,3,0,0,1,2.9,2.67l2.76,29.75A2.45,2.45,0,0,1,268.22,262.57Z" style="isolation:isolate;opacity:0.4"></path><polygon points="236.31 244.33 245.92 244.33 243.36 271.85 258.55 274.13 258.55 276.05 226.55 276.05 226.55 274.13 233.1 271.85 236.31 244.33" style="fill:#263238"></polygon><polygon points="245.92 244.33 238.8 275.61 233.1 275.44 236.31 244.33 245.92 244.33" style="fill:#fff;isolation:isolate;opacity:0.1"></polygon></g></svg>
